<?xml version="1.0" encoding="UTF-8" ?>
<!DOCTYPE svg PUBLIC "-//W3C//DTD SVG 1.1//EN" "http://www.w3.org/Graphics/SVG/1.1/DTD/svg11.dtd">
<svg width="439pt" height="512pt" viewBox="0 0 439 512" version="1.1" xmlns="http://www.w3.org/2000/svg">
<g id="#ffffffff">
<path fill="#ffffff" opacity="1.00" d=" M 47.97 0.00 L 317.99 0.00 C 330.92 1.98 343.34 8.09 352.02 17.99 C 359.92 26.75 364.94 38.17 365.83 49.93 C 365.80 120.38 365.87 190.83 365.79 261.28 C 354.16 256.31 341.79 253.20 329.25 251.65 C 329.24 187.10 329.25 122.56 329.24 58.01 C 329.14 52.60 328.21 46.77 324.20 42.78 C 320.31 37.95 313.85 36.65 307.97 36.58 C 224.64 36.57 141.30 36.58 57.96 36.57 C 52.28 36.62 46.17 37.83 42.17 42.22 C 37.80 46.22 36.64 52.35 36.58 58.02 C 36.59 165.69 36.58 273.37 36.59 381.04 C 36.79 384.85 37.07 388.84 38.91 392.28 C 41.16 396.43 45.06 399.61 49.50 401.17 C 54.21 402.42 59.14 402.32 63.99 402.28 C 102.38 402.27 140.77 402.30 179.16 402.26 C 180.71 414.82 183.97 427.17 188.91 438.83 C 144.60 438.86 100.29 438.83 55.99 438.84 C 38.83 439.81 21.68 431.38 11.28 417.82 C 5.12 410.13 1.59 400.64 0.00 390.98 L 0.00 47.81 C 1.60 38.22 5.09 28.83 11.16 21.15 C 19.95 9.51 33.61 2.07 47.97 0.00 Z" />
<path fill="#ffffff" opacity="1.00" d=" M 413.37 92.57 C 416.88 90.90 420.88 91.36 424.64 91.52 C 431.75 92.88 437.51 98.92 439.00 105.95 L 439.00 335.27 C 431.10 315.60 418.41 297.89 402.43 283.98 C 402.41 224.97 402.41 165.96 402.42 106.95 C 402.98 100.61 407.61 95.04 413.37 92.57 Z" />
<path fill="#ffffff" opacity="1.00" d=" M 84.48 110.71 C 85.89 110.21 87.33 109.59 88.87 109.71 C 139.56 109.74 190.26 109.70 240.95 109.73 C 247.27 110.47 252.71 115.23 255.08 121.04 C 257.89 128.64 255.78 138.15 248.94 142.92 C 246.33 144.81 243.25 146.40 239.95 146.29 C 190.95 146.26 141.94 146.28 92.94 146.29 C 88.68 146.60 84.22 145.91 80.76 143.23 C 72.17 137.68 70.44 124.49 76.74 116.61 C 78.62 113.90 81.49 112.01 84.48 110.71 Z" />
<path fill="#ffffff" opacity="1.00" d=" M 87.41 201.23 C 150.59 201.05 213.78 201.22 276.97 201.15 C 284.60 201.74 291.20 208.23 292.61 215.67 C 292.63 219.27 293.21 223.09 291.64 226.47 C 289.31 232.16 284.04 236.60 277.97 237.69 C 215.31 237.76 152.65 237.68 89.99 237.73 C 82.86 237.78 76.55 232.51 74.01 226.05 C 72.68 222.75 73.22 219.10 73.24 215.65 C 74.54 208.59 80.44 202.74 87.41 201.23 Z" />
<path fill="#ffffff" opacity="1.00" d=" M 304.28 256.49 C 330.63 255.04 357.37 262.00 379.58 276.28 C 401.34 290.12 418.70 310.71 428.65 334.50 C 443.85 370.36 441.29 413.19 421.67 446.87 C 405.12 476.02 376.57 498.07 344.15 506.63 C 307.22 516.69 265.88 509.02 235.27 485.96 C 213.58 469.93 197.17 446.87 189.31 421.07 C 182.00 397.45 181.82 371.68 188.80 347.95 C 196.73 320.27 214.60 295.68 238.19 279.22 C 257.52 265.66 280.70 257.69 304.28 256.49 M 295.64 291.91 C 277.40 295.17 260.17 303.99 246.96 317.00 C 230.07 333.41 219.75 356.47 219.09 380.04 C 218.21 399.67 223.98 419.46 235.02 435.69 C 246.42 452.60 263.58 465.52 282.97 471.83 C 300.00 477.45 318.66 478.01 335.98 473.33 C 352.29 469.02 367.34 460.13 379.03 447.98 C 392.17 434.36 401.00 416.64 403.90 397.94 C 406.76 379.69 404.12 360.58 396.17 343.88 C 387.32 324.93 371.84 309.18 353.03 300.01 C 335.41 291.29 314.99 288.43 295.64 291.91 Z" />
<path fill="#ffffff" opacity="1.00" d=" M 73.28 306.77 C 74.80 299.65 80.93 293.60 88.19 292.58 C 130.72 292.61 173.25 292.49 215.78 292.64 C 205.36 303.23 197.09 315.80 190.70 329.18 C 156.76 329.13 122.81 329.17 88.87 329.15 C 81.36 328.55 74.88 322.31 73.31 315.03 C 73.04 312.29 73.10 309.51 73.28 306.77 Z" />
<path fill="#ffffff" opacity="1.00" d=" M 302.21 301.19 C 306.21 299.43 310.69 299.78 314.94 299.97 C 322.56 300.55 329.14 307.30 329.23 314.99 C 329.28 331.03 329.22 347.08 329.25 363.13 C 345.19 363.14 361.13 363.10 377.07 363.14 C 383.59 363.07 389.70 367.71 391.66 373.88 C 392.89 377.42 392.45 381.24 392.44 384.93 C 392.10 392.85 384.98 399.77 377.00 399.67 C 361.08 399.69 345.16 399.66 329.24 399.68 C 329.25 415.45 329.24 431.22 329.25 446.99 C 329.37 452.74 326.05 458.48 320.87 461.05 C 316.98 463.35 312.29 462.86 307.96 462.85 C 300.01 462.89 292.86 455.91 292.69 447.96 C 292.62 431.86 292.71 415.76 292.65 399.65 C 276.76 399.69 260.88 399.67 244.99 399.67 C 239.18 399.69 233.55 396.15 231.06 390.90 C 228.95 386.95 229.41 382.34 229.46 378.03 C 229.67 370.39 236.28 363.50 243.95 363.19 C 260.15 362.87 276.55 363.50 292.62 362.87 C 292.75 346.95 292.62 331.01 292.68 315.08 C 292.73 309.10 296.72 303.48 302.21 301.19 Z" />
<path fill="#ffffff" opacity="1.00" d=" M 95.23 480.34 C 98.04 477.28 101.87 474.87 106.05 474.38 C 141.37 474.39 176.70 474.34 212.02 474.40 C 225.37 490.03 242.27 502.92 261.36 510.66 C 246.26 511.24 231.11 510.75 216.00 510.91 C 181.01 510.91 146.03 510.91 111.05 510.91 C 106.81 511.23 102.29 510.85 98.85 508.07 C 89.57 502.46 88.07 488.23 95.23 480.34 Z" />
</g>
</svg>
