<!-- Generated by IcoMoon.io -->
<svg version="1.1" xmlns="http://www.w3.org/2000/svg" width="27" height="32" viewBox="0 0 27 32">
<title>add-lesson</title>
<path fill="#fff" d="M2.998 0h16.876c0.808 0.124 1.584 0.506 2.127 1.124 0.494 0.548 0.808 1.261 0.863 1.996-0.002 4.403 0.003 8.806-0.003 13.209-0.727-0.311-1.5-0.505-2.284-0.602-0.001-4.034 0-8.068-0.001-12.102-0.006-0.338-0.064-0.703-0.315-0.952-0.243-0.302-0.647-0.383-1.014-0.388-5.208-0.001-10.417 0-15.626-0.001-0.355 0.003-0.737 0.079-0.987 0.353-0.273 0.25-0.346 0.633-0.349 0.987 0.001 6.729 0 13.459 0.001 20.189 0.013 0.238 0.030 0.488 0.145 0.703 0.141 0.259 0.384 0.458 0.662 0.556 0.294 0.078 0.603 0.072 0.906 0.069 2.399-0.001 4.799 0.001 7.198-0.001 0.097 0.785 0.301 1.557 0.609 2.286-2.769 0.002-5.539 0-8.307 0.001-1.072 0.061-2.144-0.466-2.794-1.314-0.385-0.481-0.606-1.074-0.705-1.677v-21.448c0.1-0.599 0.318-1.186 0.698-1.666 0.549-0.728 1.403-1.192 2.301-1.322z"></path>
<path fill="#fff" d="M25.836 5.786c0.219-0.104 0.469-0.076 0.704-0.066 0.444 0.085 0.804 0.463 0.898 0.902v14.332c-0.494-1.229-1.287-2.336-2.286-3.206-0.001-3.688-0.001-7.376-0.001-11.064 0.035-0.396 0.324-0.744 0.684-0.899z"></path>
<path fill="#fff" d="M5.28 6.919c0.088-0.031 0.178-0.070 0.274-0.063 3.168 0.002 6.337-0.001 9.505 0.001 0.395 0.046 0.735 0.344 0.883 0.707 0.176 0.475 0.044 1.069-0.384 1.367-0.163 0.118-0.356 0.217-0.562 0.211-3.063-0.002-6.126-0.001-9.188 0-0.266 0.019-0.545-0.024-0.761-0.191-0.537-0.347-0.645-1.171-0.251-1.664 0.117-0.169 0.297-0.287 0.484-0.369z"></path>
<path fill="#fff" d="M5.463 12.577c3.949-0.011 7.898-0.001 11.848-0.005 0.477 0.037 0.889 0.443 0.977 0.908 0.001 0.225 0.038 0.464-0.061 0.675-0.146 0.356-0.475 0.633-0.854 0.701-3.916 0.004-7.832-0.001-11.749 0.002-0.446 0.003-0.84-0.326-0.999-0.73-0.083-0.206-0.049-0.434-0.048-0.65 0.081-0.441 0.45-0.807 0.886-0.901z"></path>
<path fill="#fff" d="M19.017 16.031c1.647-0.091 3.318 0.344 4.706 1.237 1.36 0.865 2.445 2.152 3.067 3.639 0.95 2.241 0.79 4.918-0.436 7.023-1.034 1.822-2.819 3.2-4.845 3.735-2.308 0.629-4.892 0.149-6.805-1.292-1.356-1.002-2.381-2.443-2.873-4.056-0.457-1.476-0.468-3.087-0.032-4.57 0.496-1.73 1.613-3.267 3.087-4.296 1.208-0.848 2.657-1.346 4.131-1.421zM18.477 18.244c-1.14 0.204-2.217 0.755-3.043 1.568-1.056 1.026-1.701 2.467-1.742 3.94-0.055 1.227 0.306 2.464 0.996 3.478 0.713 1.057 1.785 1.864 2.997 2.259 1.064 0.351 2.231 0.386 3.313 0.094 1.019-0.269 1.96-0.825 2.691-1.584 0.821-0.851 1.373-1.959 1.554-3.128 0.179-1.141 0.014-2.335-0.483-3.379-0.553-1.184-1.521-2.169-2.696-2.742-1.101-0.545-2.378-0.724-3.587-0.506z"></path>
<path fill="#fff" d="M4.58 19.173c0.095-0.445 0.478-0.823 0.932-0.887 2.658 0.002 5.316-0.006 7.974 0.004-0.651 0.662-1.168 1.448-1.568 2.284-2.121-0.003-4.243-0.001-6.364-0.002-0.469-0.038-0.874-0.427-0.973-0.883-0.017-0.171-0.013-0.345-0.002-0.516z"></path>
<path fill="#fff" d="M18.888 18.824c0.25-0.11 0.53-0.088 0.796-0.076 0.476 0.036 0.887 0.458 0.893 0.939 0.003 1.003-0.001 2.006 0.001 3.009 0.996 0.001 1.992-0.002 2.989 0.001 0.407-0.004 0.789 0.286 0.912 0.671 0.077 0.221 0.049 0.46 0.049 0.691-0.021 0.495-0.466 0.927-0.965 0.921-0.995 0.001-1.99-0.001-2.985 0.001 0.001 0.986 0 1.971 0.001 2.957 0.008 0.359-0.2 0.718-0.524 0.879-0.243 0.144-0.536 0.113-0.807 0.113-0.497 0.003-0.944-0.434-0.954-0.931-0.004-1.006 0.001-2.012-0.003-3.019-0.993 0.003-1.986 0.001-2.979 0.001-0.363 0.001-0.715-0.22-0.871-0.548-0.132-0.247-0.103-0.535-0.1-0.804 0.013-0.477 0.426-0.908 0.906-0.927 1.012-0.020 2.038 0.019 3.042-0.020 0.008-0.995 0-1.991 0.004-2.987 0.003-0.374 0.253-0.725 0.596-0.868z"></path>
<path fill="#fff" d="M5.952 30.021c0.176-0.191 0.415-0.342 0.676-0.372 2.207 0.001 4.416-0.003 6.623 0.001 0.834 0.977 1.891 1.782 3.084 2.266-0.944 0.036-1.891 0.006-2.835 0.016-2.187 0-4.373 0-6.559 0-0.265 0.020-0.548-0.004-0.763-0.177-0.58-0.351-0.674-1.24-0.226-1.733z"></path>
</svg>
