<!-- Generated by IcoMoon.io -->
<svg version="1.1" xmlns="http://www.w3.org/2000/svg" width="32" height="32" viewBox="0 0 32 32">
<title>add</title>
<path fill="#fff" d="M14.919 0.091c2.709-0.184 5.464 0.335 7.914 1.509 2.716 1.291 5.048 3.368 6.652 5.911 1.477 2.329 2.33 5.050 2.444 7.807 0.125 2.756-0.483 5.542-1.752 7.993-1.958 3.821-5.516 6.787-9.638 7.999-2.915 0.865-6.089 0.897-9.002 0.003-3.455-1.029-6.535-3.255-8.598-6.211-1.522-2.172-2.514-4.723-2.815-7.36-0.335-3.041 0.224-6.176 1.611-8.904 1.433-2.844 3.737-5.239 6.522-6.781 2.039-1.137 4.332-1.813 6.662-1.965zM15.498 2.445c-3.102 0.099-6.148 1.319-8.47 3.376-1.955 1.716-3.407 4.002-4.11 6.509-0.732 2.586-0.671 5.389 0.175 7.94 0.75 2.274 2.121 4.337 3.917 5.92 1.793 1.588 4.013 2.691 6.366 3.148 2.553 0.501 5.251 0.253 7.664-0.723 2.377-0.953 4.47-2.598 5.965-4.676 1.412-1.952 2.29-4.287 2.503-6.686 0.231-2.488-0.24-5.039-1.361-7.275-1.219-2.455-3.2-4.524-5.6-5.849-2.138-1.191-4.604-1.776-7.049-1.685z"></path>
<path fill="#fff" d="M14.799 9.598c0.015-0.636 0.62-1.174 1.253-1.123 0.613 0.020 1.144 0.581 1.124 1.196 0.001 1.717 0 3.435 0 5.152 1.744 0.002 3.489-0.005 5.233 0.003 0.62 0.019 1.148 0.598 1.117 1.217-0.002 0.6-0.523 1.141-1.124 1.157-1.742 0.006-3.483 0.002-5.225 0.002-0.003 1.735 0.003 3.469-0.002 5.204-0.003 0.63-0.588 1.177-1.216 1.146-0.608 0.001-1.154-0.533-1.162-1.141-0.004-1.736 0-3.472-0.002-5.208-1.735-0.002-3.471 0.002-5.206-0.002-0.609-0.006-1.144-0.554-1.143-1.162-0.031-0.629 0.518-1.213 1.149-1.215 1.734-0.005 3.468 0 5.201-0.002 0.001-1.742-0.005-3.484 0.002-5.225z"></path>
</svg>
