<!-- Generated by IcoMoon.io -->
<svg version="1.1" xmlns="http://www.w3.org/2000/svg" width="32" height="32" viewBox="0 0 32 32">
<title>attendence</title>
<path fill="#fff" d="M6.109 10.422c0.074 0.453 0.25 0.742 0.426 0.922 0.41 2.746 2.703 5.293 4.805 5.293 2.445 0 4.672-2.758 5.098-5.285 0.18-0.18 0.355-0.469 0.434-0.93 0.137-0.516 0.316-1.41 0.004-1.828-0.016-0.020-0.035-0.043-0.051-0.059 0.297-1.078 0.668-3.313-0.668-4.828-0.117-0.152-0.867-1.047-2.469-1.52l-0.766-0.266c-1.258-0.387-2.051-0.477-2.086-0.48-0.055-0.004-0.117 0-0.172 0.016-0.043 0.012-0.191 0.051-0.309 0.035-0.301-0.043-0.754 0.113-0.836 0.145-0.102 0.043-2.543 1.020-3.285 3.293-0.066 0.184-0.363 1.148 0.031 3.52-0.059 0.039-0.113 0.090-0.156 0.148-0.32 0.414-0.141 1.309 0 1.824z"></path>
<path fill="#fff" d="M15.875 27.723c-0.453-0.254-0.941-0.496-1.465-0.727-0.25-0.113-0.508-0.219-0.762-0.32-0.203-0.074-0.438-0.172-0.602-0.215l-2.422-0.652 4.527-9.215 1.938 1.227c0.41 0.254 0.711 0.473 1.043 0.715l0.070 0.051c0.328 0.246 0.648 0.492 0.965 0.75 0.688 0.555 1.297 1.098 1.859 1.656 0.043 0.043 0.086 0.082 0.129 0.125 0.188-0.207 0.375-0.395 0.559-0.598-0.234-0.703-0.523-1.355-0.875-1.875 0 0-0.496-0.68-1.676-1.133 0 0-0.102-0.031-0.254-0.082-1.051-0.492-2.047-0.809-2.047-0.809-0.215-0.078-0.402-0.152-0.57-0.227-0.715-0.352-1.309-0.75-1.43-1.125 0 0 0.41 3.988-3.074 4.082l-0.484-0.023c-3.16-0.281-3.371-4.066-3.371-4.066-0.328 1.039-4.301 2.246-4.301 2.246-1.18 0.453-1.68 1.133-1.68 1.133-1.746 2.59-1.953 8.352-1.953 8.352 0.023 1.32 0.59 1.457 0.59 1.457 4.016 1.789 10.316 2.105 10.316 2.105 0.34 0.008 0.656-0.008 0.973-0.027l0.008 0.031c0 0 3.074-0.156 6.301-0.859l-0.395-0.516c-0.32-0.426-1.035-0.969-1.918-1.461z"></path>
<path fill="#fff" d="M14.727 15.438c0.043-0.055 0.090-0.109 0.137-0.168-0.012-0.039-0.012-0.059-0.012-0.059-0.039 0.082-0.086 0.148-0.125 0.227z"></path>
<path fill="#fff" d="M7.953 15.254l-0.012-0.043-0.008 0.047c0.004-0.008 0.012-0.016 0.012-0.023 0.004 0 0.004 0.008 0.008 0.020z"></path>
<path fill="#fff" d="M28.309 17.105c-1.145 0.809-2.211 1.723-3.227 2.68-1.016 0.969-1.98 1.984-2.91 3.035-0.344 0.391-0.68 0.789-1.012 1.188-0.004-0.008-0.008-0.016-0.008-0.020-0.492-0.652-1.020-1.234-1.57-1.777s-1.121-1.047-1.711-1.523c-0.293-0.234-0.594-0.469-0.895-0.695-0.316-0.23-0.594-0.438-0.984-0.68l-2.41 4.902c0.223 0.059 0.543 0.184 0.813 0.289 0.289 0.113 0.57 0.23 0.852 0.355 0.563 0.246 1.109 0.52 1.637 0.813 1.035 0.578 2 1.281 2.551 2.004l1.852 2.43 1.066-2.313c0.535-1.16 1.18-2.371 1.84-3.523 0.664-1.164 1.371-2.301 2.141-3.402 0.77-1.098 1.594-2.16 2.516-3.141 0.922-0.973 1.938-1.879 3.152-2.52-1.316 0.391-2.551 1.098-3.691 1.898z"></path>
</svg>
