<!-- Generated by IcoMoon.io -->
<svg version="1.1" xmlns="http://www.w3.org/2000/svg" width="32" height="32" viewBox="0 0 32 32">
<title>box-plan</title>
<path fill="#fff" d="M0 11.516v18.797c0 0.516 0.418 0.938 0.938 0.938h30.125c0.52 0 0.938-0.422 0.938-0.938v-18.832c-0.078 0.023-32 0.035-32 0.035zM21.496 15.938c0-0.52 0.422-0.938 0.938-0.938h3.488c0.52 0 0.938 0.418 0.938 0.938v3.488c0 0.516-0.418 0.938-0.938 0.938h-3.488c-0.516 0-0.938-0.422-0.938-0.938zM21.496 23.34c0-0.516 0.422-0.938 0.938-0.938h3.488c0.52 0 0.938 0.422 0.938 0.938v3.488c0 0.52-0.418 0.938-0.938 0.938h-3.488c-0.516 0-0.938-0.418-0.938-0.938zM13.316 15.938c0-0.52 0.422-0.938 0.938-0.938h3.492c0.516 0 0.938 0.418 0.938 0.938v3.488c0 0.516-0.422 0.938-0.938 0.938h-3.492c-0.516 0-0.938-0.422-0.938-0.938zM13.316 23.34c0-0.516 0.422-0.938 0.938-0.938h3.492c0.516 0 0.938 0.422 0.938 0.938v3.488c0 0.52-0.422 0.938-0.938 0.938h-3.492c-0.516 0-0.938-0.418-0.938-0.938zM5.141 15.938c0-0.52 0.418-0.938 0.938-0.938h3.488c0.516 0 0.938 0.418 0.938 0.938v3.488c0 0.516-0.422 0.938-0.938 0.938h-3.488c-0.52 0-0.938-0.422-0.938-0.938zM5.141 23.34c0-0.516 0.418-0.938 0.938-0.938h3.488c0.516 0 0.938 0.422 0.938 0.938v3.488c0 0.52-0.422 0.938-0.938 0.938h-3.488c-0.52 0-0.938-0.418-0.938-0.938z"></path>
<path fill="#fff" d="M32 9.676v-5.832c0-0.52-0.418-0.938-0.938-0.938h-6.973v3.121c0 0.516-0.418 0.938-0.938 0.938-0.516 0-0.938-0.422-0.938-0.938v-3.121h-12.43v3.121c0 0.516-0.422 0.938-0.938 0.938-0.52 0-0.938-0.422-0.938-0.938v-3.121h-6.973c-0.52 0-0.938 0.418-0.938 0.938v5.797c0 0 31.922 0.012 32 0.035z"></path>
<path fill="#fff" d="M9.785 2.906v-1.219c0-0.516-0.422-0.938-0.938-0.938-0.52 0-0.938 0.422-0.938 0.938v1.219z"></path>
<path fill="#fff" d="M24.090 2.906v-1.219c0-0.516-0.418-0.938-0.938-0.938-0.516 0-0.938 0.422-0.938 0.938v1.219z"></path>
<path fill="#fff" d="M7.016 16.875h1.613v1.613h-1.613z"></path>
<path fill="#fff" d="M15.191 16.875h1.617v1.613h-1.617z"></path>
<path fill="#fff" d="M23.371 16.875h1.613v1.613h-1.613z"></path>
<path fill="#fff" d="M7.016 24.277h1.613v1.613h-1.613z"></path>
<path fill="#fff" d="M15.191 24.277h1.617v1.613h-1.617z"></path>
<path fill="#fff" d="M23.371 24.277h1.613v1.613h-1.613z"></path>
</svg>
