<?xml version="1.0"?>
<svg xmlns="http://www.w3.org/2000/svg" xmlns:xlink="http://www.w3.org/1999/xlink" xmlns:svgjs="http://svgjs.com/svgjs" version="1.1" width="512" height="512" x="0" y="0" viewBox="0 0 192 192" style="enable-background:new 0 0 512 512" xml:space="preserve" class=""><g><g xmlns="http://www.w3.org/2000/svg" id="_23-teamwork" data-name="23-teamwork"><g id="Glyph"><circle cx="152" cy="72" r="24" fill="#ffffff" data-original="#000000" style=""/><circle cx="40" cy="72" r="24" fill="#ffffff" data-original="#000000" style=""/><circle cx="96" cy="56" r="32" fill="#ffffff" data-original="#000000" style=""/><path d="m176 104h-28.3a31.8 31.8 0 0 1 4.3 16v56h32a8 8 0 0 0 8-8v-48a16 16 0 0 0 -16-16z" fill="#ffffff" data-original="#000000" style=""/><path d="m44.305 104h-28.305a16 16 0 0 0 -16 16v48a8 8 0 0 0 8 8h32v-56a31.8 31.8 0 0 1 4.305-16z" fill="#ffffff" data-original="#000000" style=""/><path d="m120 88h-8l-16 48-16-48h-8a24 24 0 0 0 -24 24v72a8 8 0 0 0 8 8h80a8 8 0 0 0 8-8v-72a24 24 0 0 0 -24-24z" fill="#ffffff" data-original="#000000" style=""/></g></g></g></svg>
