<!-- Generated by IcoMoon.io -->
<svg version="1.1" xmlns="http://www.w3.org/2000/svg" width="32" height="32" viewBox="0 0 32 32">
<title>box-confirm</title>
<path fill="#fff" d="M31.844 17.059l-1.887-2.973 1.121-3.34c0.148-0.457-0.039-0.957-0.457-1.195l-3.051-1.758-0.559-3.477c-0.082-0.477-0.48-0.828-0.961-0.848l-3.52-0.137-2.109-2.82c-0.289-0.387-0.813-0.512-1.242-0.305l-3.18 1.512-3.18-1.516c-0.434-0.203-0.953-0.074-1.242 0.309l-2.113 2.82-3.52 0.137c-0.477 0.020-0.879 0.371-0.957 0.848l-0.559 3.477-3.051 1.758c-0.418 0.238-0.609 0.738-0.457 1.195l1.121 3.34-1.887 2.973c-0.258 0.406-0.191 0.938 0.156 1.27l2.539 2.438-0.285 3.512c-0.039 0.48 0.266 0.918 0.727 1.051l3.383 0.977 1.379 3.242c0.188 0.438 0.66 0.695 1.129 0.594l3.453-0.707 2.723 2.23c0.188 0.148 0.414 0.227 0.641 0.227s0.453-0.078 0.641-0.227l2.723-2.23 3.453 0.707c0.469 0.098 0.941-0.152 1.129-0.594l1.379-3.242 3.383-0.977c0.461-0.133 0.766-0.57 0.727-1.051l-0.285-3.512 2.539-2.438c0.348-0.332 0.414-0.863 0.156-1.27zM23.297 12.203l-7.066 10.586c-0.266 0.395-0.68 0.66-1.090 0.66s-0.867-0.23-1.16-0.523l-5.188-5.27c-0.355-0.359-0.355-0.945 0-1.305l1.281-1.301c0.352-0.355 0.926-0.355 1.277 0l3.379 3.426 5.566-8.34c0.277-0.422 0.848-0.527 1.258-0.242l1.5 1.031c0.414 0.285 0.523 0.859 0.242 1.277z"></path>
</svg>
