<!-- Generated by IcoMoon.io -->
<svg version="1.1" xmlns="http://www.w3.org/2000/svg" width="32" height="32" viewBox="0 0 32 32">
<title>box-layers</title>
<path fill="#fff" d="M31.5 15.055c-0.035-0.023-0.066-0.043-0.102-0.059l-2.27-1.227-12.594 6.668c-0.336 0.18-0.734 0.18-1.070 0l-12.594-6.668-2.27 1.227c-0.551 0.293-0.762 0.977-0.469 1.527 0.020 0.035 0.039 0.066 0.059 0.102l15.809 8.367 15.809-8.367c0.348-0.52 0.211-1.223-0.309-1.57z"></path>
<path fill="#fff" d="M31.863 22.313c-0.105-0.195-0.27-0.355-0.465-0.461l-2.27-1.223-12.594 6.668c-0.336 0.176-0.734 0.176-1.070 0l-12.594-6.668-2.27 1.223c-0.555 0.301-0.762 0.992-0.465 1.547 0.109 0.199 0.27 0.359 0.465 0.465l14.855 8c0.34 0.184 0.746 0.184 1.086 0l14.855-8c0.555-0.301 0.762-0.992 0.465-1.551z"></path>
<path fill="#fff" d="M31.5 8.195c-0.035-0.020-0.066-0.039-0.102-0.059l-14.855-8c-0.34-0.184-0.746-0.184-1.086 0l-14.855 8c-0.551 0.293-0.762 0.977-0.469 1.531 0.020 0.035 0.039 0.066 0.059 0.098l15.809 8.371 15.809-8.371c0.348-0.52 0.211-1.219-0.309-1.57z"></path>
</svg>
