<!-- Generated by IcoMoon.io -->
<svg version="1.1" xmlns="http://www.w3.org/2000/svg" width="32" height="32" viewBox="0 0 32 32">
<title>box-student</title>
<path fill="#fff" d="M16 19.199l-9.547-2.941v4.91c0 2.266 4.277 4.105 9.551 4.105s9.547-1.84 9.547-4.105c0-0.020-0.004-0.039-0.004-0.055v-4.855z"></path>
<path fill="#fff" d="M0 12.883l3.41 1.219 0.289-0.621 1.254-0.109 0.18 0.188-1.074 0.254-0.156 0.465c-0.004 0-2.43 5.074-2.074 7.559 0 0 1.516 0.906 3.031 0l0.402-6.789v-0.566l2.254-0.508-0.156 0.391-1.684 0.547 0.777 0.281 9.547 2.938 9.547-2.938 6.453-2.309-16-6.156z"></path>
</svg>
