<?xml version="1.0"?>
<svg xmlns="http://www.w3.org/2000/svg" xmlns:xlink="http://www.w3.org/1999/xlink" xmlns:svgjs="http://svgjs.com/svgjs" version="1.1" width="512" height="512" x="0" y="0" viewBox="0 0 512 512" style="enable-background:new 0 0 512 512" xml:space="preserve" class=""><g><g xmlns="http://www.w3.org/2000/svg"><path d="m0 184.253v300.737c0 8.284 6.716 15 15 15h482c8.284 0 15-6.716 15-15v-301.293c-1.276.353-512 .556-512 .556zm343.961 70.726c0-8.284 6.716-15 15-15h55.816c8.284 0 15 6.716 15 15v55.816c0 8.284-6.716 15-15 15h-55.816c-8.284 0-15-6.716-15-15zm0 118.469c0-8.284 6.716-15 15-15h55.816c8.284 0 15 6.716 15 15v55.816c0 8.284-6.716 15-15 15h-55.816c-8.284 0-15-6.716-15-15zm-130.869-118.469c0-8.284 6.716-15 15-15h55.817c8.284 0 15 6.716 15 15v55.816c0 8.284-6.716 15-15 15h-55.817c-8.284 0-15-6.716-15-15zm0 118.469c0-8.284 6.716-15 15-15h55.817c8.284 0 15 6.716 15 15v55.816c0 8.284-6.716 15-15 15h-55.817c-8.284 0-15-6.716-15-15zm-130.87-118.469c0-8.284 6.716-15 15-15h55.817c8.284 0 15 6.716 15 15v55.816c0 8.284-6.716 15-15 15h-55.817c-8.284 0-15-6.716-15-15zm0 118.469c0-8.284 6.716-15 15-15h55.817c8.284 0 15 6.716 15 15v55.816c0 8.284-6.716 15-15 15h-55.817c-8.284 0-15-6.716-15-15z" fill="#ffffff" data-original="#000000" style="" class=""/><path d="m512 154.809v-93.336c0-8.284-6.716-15-15-15h-111.538v49.956c0 8.284-6.716 15-15 15s-15-6.716-15-15v-49.956h-198.924v49.956c0 8.284-6.716 15-15 15s-15-6.716-15-15v-49.956h-111.538c-8.284 0-15 6.716-15 15v92.78s510.724.204 512 .556z" fill="#ffffff" data-original="#000000" style="" class=""/><path d="m156.538 46.473v-19.464c0-8.284-6.716-15-15-15s-15 6.716-15 15v19.464z" fill="#ffffff" data-original="#000000" style="" class=""/><path d="m385.462 46.473v-19.464c0-8.284-6.716-15-15-15s-15 6.716-15 15v19.464z" fill="#ffffff" data-original="#000000" style="" class=""/><path d="m112.222 269.979h25.817v25.816h-25.817z" fill="#ffffff" data-original="#000000" style="" class=""/><path d="m243.092 269.979h25.817v25.816h-25.817z" fill="#ffffff" data-original="#000000" style="" class=""/><path d="m373.961 269.979h25.816v25.816h-25.816z" fill="#ffffff" data-original="#000000" style="" class=""/><path d="m112.222 388.448h25.817v25.816h-25.817z" fill="#ffffff" data-original="#000000" style="" class=""/><path d="m243.092 388.448h25.817v25.816h-25.817z" fill="#ffffff" data-original="#000000" style="" class=""/><path d="m373.961 388.448h25.816v25.816h-25.816z" fill="#ffffff" data-original="#000000" style="" class=""/></g></g></svg>
