<!-- Generated by IcoMoon.io -->
<svg version="1.1" xmlns="http://www.w3.org/2000/svg" width="32" height="32" viewBox="0 0 32 32">
<title>box-profile</title>
<path fill="#fff" d="M29.332 12c0 2.211-1.789 4-4 4-2.207 0-4-1.789-4-4s1.793-4 4-4c2.211 0 4 1.789 4 4z"></path>
<path fill="#fff" d="M10.668 12c0 2.211-1.793 4-4 4-2.211 0-4-1.789-4-4s1.789-4 4-4c2.207 0 4 1.789 4 4z"></path>
<path fill="#fff" d="M21.332 9.332c0 2.945-2.387 5.336-5.332 5.336s-5.332-2.391-5.332-5.336c0-2.945 2.387-5.332 5.332-5.332s5.332 2.387 5.332 5.332z"></path>
<path fill="#fff" d="M29.332 17.332h-4.715c0.469 0.813 0.719 1.73 0.715 2.668v9.332h5.336c0.734 0 1.332-0.594 1.332-1.332v-8c0-1.473-1.195-2.668-2.668-2.668z"></path>
<path fill="#fff" d="M7.383 17.332h-4.715c-1.473 0-2.668 1.195-2.668 2.668v8c0 0.738 0.598 1.332 1.332 1.332h5.336v-9.332c-0.004-0.938 0.246-1.855 0.715-2.668z"></path>
<path fill="#fff" d="M20 14.668h-1.332l-2.668 8-2.668-8h-1.332c-2.211 0-4 1.789-4 4v12c0 0.734 0.598 1.332 1.332 1.332h13.336c0.734 0 1.332-0.598 1.332-1.332v-12c0-2.211-1.789-4-4-4z"></path>
</svg>
