<!-- Generated by IcoMoon.io -->
<svg version="1.1" xmlns="http://www.w3.org/2000/svg" width="32" height="32" viewBox="0 0 32 32">
<title>classroom</title>
<path fill="#fff" d="M0.063 31.063c0 0.52 0.418 0.938 0.938 0.938h30c0.52 0 0.938-0.418 0.938-0.938v-2.938h-31.875z"></path>
<path fill="#fff" d="M7.25 18.438c0 1.379-1.121 2.5-2.5 2.5s-2.5-1.121-2.5-2.5c0-1.379 1.121-2.5 2.5-2.5s2.5 1.121 2.5 2.5z"></path>
<path fill="#fff" d="M18.5 18.438c0 1.379-1.121 2.5-2.5 2.5s-2.5-1.121-2.5-2.5c0-1.379 1.121-2.5 2.5-2.5s2.5 1.121 2.5 2.5z"></path>
<path fill="#fff" d="M29.75 18.438c0 1.379-1.121 2.5-2.5 2.5s-2.5-1.121-2.5-2.5c0-1.379 1.121-2.5 2.5-2.5s2.5 1.121 2.5 2.5z"></path>
<path fill="#fff" d="M0.063 26.25h9.375c0-1.754-0.965-3.285-2.395-4.090-0.668 0.414-1.453 0.652-2.293 0.652s-1.625-0.238-2.293-0.652c-1.43 0.805-2.395 2.336-2.395 4.090z"></path>
<path fill="#fff" d="M11.313 26.25h9.375c0-1.754-0.965-3.285-2.395-4.090-0.668 0.414-1.453 0.652-2.293 0.652s-1.625-0.238-2.293-0.652c-1.43 0.805-2.395 2.336-2.395 4.090z"></path>
<path fill="#fff" d="M29.543 22.16c-0.668 0.414-1.453 0.652-2.293 0.652s-1.625-0.238-2.293-0.652c-1.43 0.805-2.395 2.336-2.395 4.090h9.375c0-1.754-0.965-3.285-2.395-4.090z"></path>
<path fill="#fff" d="M7.25 2.5c0 1.379-1.121 2.5-2.5 2.5s-2.5-1.121-2.5-2.5c0-1.379 1.121-2.5 2.5-2.5s2.5 1.121 2.5 2.5z"></path>
<path fill="#fff" d="M18.5 2.5c0 1.379-1.121 2.5-2.5 2.5s-2.5-1.121-2.5-2.5c0-1.379 1.121-2.5 2.5-2.5s2.5 1.121 2.5 2.5z"></path>
<path fill="#fff" d="M29.75 2.5c0 1.379-1.121 2.5-2.5 2.5s-2.5-1.121-2.5-2.5c0-1.379 1.121-2.5 2.5-2.5s2.5 1.121 2.5 2.5z"></path>
<path fill="#fff" d="M7.043 6.223c-0.668 0.414-1.453 0.652-2.293 0.652s-1.625-0.238-2.293-0.652c-1.43 0.805-2.395 2.336-2.395 4.090h9.375c0-1.754-0.965-3.285-2.395-4.090z"></path>
<path fill="#fff" d="M18.293 6.223c-0.668 0.414-1.453 0.652-2.293 0.652s-1.625-0.238-2.293-0.652c-1.43 0.805-2.395 2.336-2.395 4.090h9.375c0-1.754-0.965-3.285-2.395-4.090z"></path>
<path fill="#fff" d="M0.063 18.426c0 0.18 0.145 0.324 0.324 0.324-0.008-0.102-0.012-0.207-0.012-0.313 0-2.414 1.961-4.375 4.375-4.375s4.375 1.961 4.375 4.375c0 0.105-0.004 0.211-0.012 0.313h2.523c-0.008-0.102-0.012-0.207-0.012-0.313 0-2.414 1.961-4.375 4.375-4.375s4.375 1.961 4.375 4.375c0 0.105-0.004 0.211-0.012 0.313h2.523c-0.008-0.102-0.012-0.207-0.012-0.313 0-2.414 1.961-4.375 4.375-4.375s4.375 1.961 4.375 4.375c0 0.105-0.004 0.211-0.012 0.313 0.18 0 0.324-0.145 0.324-0.324v-6.238h-31.875z"></path>
<path fill="#fff" d="M29.543 6.223c-0.668 0.414-1.453 0.652-2.293 0.652s-1.625-0.238-2.293-0.652c-1.43 0.805-2.395 2.336-2.395 4.090h9.375c0-1.754-0.965-3.285-2.395-4.090z"></path>
</svg>
