<?xml version="1.0"?>
<svg xmlns="http://www.w3.org/2000/svg" id="Capa_1" enable-background="new 0 0 512 512" height="512" viewBox="0 0 512 512" width="512" class=""><g><g><path d="m1 497c0 8.284 6.716 15 15 15h480c8.284 0 15-6.716 15-15v-47h-510z" data-original="#000000" class="active-path" style="fill:#FFFFFF" data-old_color="#000000"/><circle cx="76" cy="295" r="40" data-original="#000000" class="active-path" style="fill:#FFFFFF" data-old_color="#000000"/><circle cx="256" cy="295" r="40" data-original="#000000" class="active-path" style="fill:#FFFFFF" data-old_color="#000000"/><circle cx="436" cy="295" r="40" data-original="#000000" class="active-path" style="fill:#FFFFFF" data-old_color="#000000"/><path d="m1 420h150c0-28.093-15.456-52.563-38.319-65.412-10.674 6.595-23.238 10.412-36.681 10.412s-26.007-3.817-36.681-10.412c-22.863 12.849-38.319 37.319-38.319 65.412z" data-original="#000000" class="active-path" style="fill:#FFFFFF" data-old_color="#000000"/><path d="m181 420h150c0-28.093-15.456-52.563-38.319-65.412-10.674 6.595-23.238 10.412-36.681 10.412s-26.007-3.817-36.681-10.412c-22.863 12.849-38.319 37.319-38.319 65.412z" data-original="#000000" class="active-path" style="fill:#FFFFFF" data-old_color="#000000"/><path d="m472.681 354.588c-10.674 6.595-23.238 10.412-36.681 10.412s-26.007-3.817-36.681-10.412c-22.863 12.849-38.319 37.319-38.319 65.412h150c0-28.093-15.456-52.563-38.319-65.412z" data-original="#000000" class="active-path" style="fill:#FFFFFF" data-old_color="#000000"/><circle cx="76" cy="40" r="40" data-original="#000000" class="active-path" style="fill:#FFFFFF" data-old_color="#000000"/><circle cx="256" cy="40" r="40" data-original="#000000" class="active-path" style="fill:#FFFFFF" data-old_color="#000000"/><circle cx="436" cy="40" r="40" data-original="#000000" class="active-path" style="fill:#FFFFFF" data-old_color="#000000"/><path d="m112.681 99.588c-10.674 6.595-23.238 10.412-36.681 10.412s-26.007-3.817-36.681-10.412c-22.863 12.849-38.319 37.319-38.319 65.412h150c0-28.093-15.456-52.563-38.319-65.412z" data-original="#000000" class="active-path" style="fill:#FFFFFF" data-old_color="#000000"/><path d="m292.681 99.588c-10.674 6.595-23.238 10.412-36.681 10.412s-26.007-3.817-36.681-10.412c-22.863 12.849-38.319 37.319-38.319 65.412h150c0-28.093-15.456-52.563-38.319-65.412z" data-original="#000000" class="active-path" style="fill:#FFFFFF" data-old_color="#000000"/><path d="m1 294.802c0 2.871 2.327 5.198 5.198 5.198-.117-1.654-.198-3.317-.198-5 0-38.598 31.402-70 70-70s70 31.402 70 70c0 1.683-.081 3.346-.198 5h40.397c-.117-1.654-.198-3.317-.198-5 0-38.598 31.402-70 70-70s70 31.402 70 70c0 1.683-.081 3.346-.198 5h40.396c-.117-1.654-.198-3.317-.198-5 0-38.598 31.402-70 70-70s70 31.402 70 70c0 1.683-.081 3.346-.198 5 2.871 0 5.198-2.327 5.198-5.198v-99.802h-510.001z" data-original="#000000" class="active-path" style="fill:#FFFFFF" data-old_color="#000000"/><path d="m472.681 99.588c-10.674 6.595-23.238 10.412-36.681 10.412s-26.007-3.817-36.681-10.412c-22.863 12.849-38.319 37.319-38.319 65.412h150c0-28.093-15.456-52.563-38.319-65.412z" data-original="#000000" class="active-path" style="fill:#FFFFFF" data-old_color="#000000"/></g></g> </svg>
