<!-- Generated by IcoMoon.io -->
<svg version="1.1" xmlns="http://www.w3.org/2000/svg" width="32" height="32" viewBox="0 0 32 32">
<title>confirm</title>
<path fill="#fff" d="M31.844 17.060l-1.886-2.975 1.119-3.339c0.151-0.456-0.037-0.956-0.453-1.194l-3.052-1.759-0.561-3.477c-0.078-0.474-0.478-0.828-0.957-0.848l-3.52-0.138-2.112-2.819c-0.288-0.385-0.81-0.513-1.24-0.305l-3.18 1.512-3.181-1.514c-0.432-0.205-0.951-0.077-1.24 0.307l-2.112 2.819-3.52 0.138c-0.478 0.019-0.879 0.373-0.956 0.847l-0.561 3.477-3.052 1.759c-0.416 0.238-0.606 0.739-0.454 1.194l1.119 3.339-1.885 2.976c-0.257 0.406-0.191 0.936 0.155 1.269l2.542 2.437-0.286 3.509c-0.038 0.481 0.264 0.919 0.725 1.053l3.384 0.975 1.377 3.242c0.189 0.441 0.662 0.697 1.131 0.595l3.452-0.708 2.724 2.231c0.185 0.15 0.412 0.228 0.639 0.228s0.453-0.078 0.639-0.228l2.724-2.231 3.452 0.708c0.468 0.099 0.944-0.153 1.131-0.595l1.377-3.242 3.384-0.975c0.461-0.133 0.764-0.572 0.725-1.053l-0.286-3.509 2.542-2.437c0.346-0.333 0.412-0.863 0.155-1.269zM23.297 12.204l-7.066 10.586c-0.267 0.395-0.68 0.659-1.091 0.659-0.41 0-0.868-0.23-1.16-0.523l-5.188-5.271c-0.354-0.36-0.354-0.944 0-1.304l1.28-1.304c0.354-0.355 0.929-0.355 1.28 0l3.376 3.429 5.568-8.341c0.279-0.421 0.847-0.528 1.259-0.243l1.501 1.032c0.413 0.286 0.52 0.86 0.241 1.279z"></path>
</svg>
