<!-- Generated by IcoMoon.io -->
<svg version="1.1" xmlns="http://www.w3.org/2000/svg" width="32" height="32" viewBox="0 0 32 32">
<title>delete</title>
<path fill="#c0392b" d="M25.855 8.336c-0.148-0.563-0.25-0.875-0.25-0.875-0.16-0.578-0.574-0.578-1.188-0.68l-3.316-0.418c-0.414-0.070-0.414-0.070-0.578-0.426-0.543-1.227-0.711-1.938-1.305-1.938h-6.438c-0.594 0-0.758 0.711-1.301 1.945-0.16 0.348-0.16 0.348-0.574 0.422l-3.324 0.422c-0.605 0.098-1.043 0.156-1.207 0.734 0 0-0.074 0.258-0.23 0.813-0.199 0.746-0.281 0.664 0.406 0.664h18.898c0.688 0.008 0.613 0.082 0.406-0.664z"></path>
<path fill="#c0392b" d="M23.711 11h-15.422c-1.039 0-1.090 0.137-1.027 0.918l1.168 15.164c0.102 0.77 0.176 0.926 1.094 0.926h12.953c0.918 0 0.992-0.156 1.094-0.926l1.168-15.164c0.063-0.785 0.012-0.918-1.027-0.918z"></path>
</svg>
