<!-- Generated by IcoMoon.io -->
<svg version="1.1" xmlns="http://www.w3.org/2000/svg" width="32" height="32" viewBox="0 0 32 32">
<title>dots</title>
<path fill="#a6a6a6" d="M19.617 5.801c0 2.023-1.641 3.664-3.668 3.664-2.023 0-3.668-1.641-3.668-3.664 0-2.027 1.645-3.668 3.668-3.668 2.027 0 3.668 1.641 3.668 3.668z"></path>
<path fill="#a6a6a6" d="M19.715 25.559c0 2.027-1.641 3.668-3.664 3.668-2.027 0-3.668-1.641-3.668-3.668 0-2.023 1.641-3.664 3.668-3.664 2.023 0 3.664 1.641 3.664 3.664z"></path>
<path fill="#a6a6a6" d="M19.668 15.84c0 2.023-1.645 3.668-3.668 3.668s-3.668-1.645-3.668-3.668c0-2.023 1.645-3.668 3.668-3.668s3.668 1.645 3.668 3.668z"></path>
</svg>
