<!-- Generated by IcoMoon.io -->
<svg version="1.1" xmlns="http://www.w3.org/2000/svg" width="32" height="32" viewBox="0 0 32 32">
<title>download-image</title>
<path fill="#41a8c7" d="M15.142 0.462c2.74-0.154 5.52 0.429 7.96 1.688 3.101 1.585 5.638 4.244 7.072 7.419 1.109 2.429 1.564 5.149 1.327 7.808-0.198 2.299-0.921 4.55-2.098 6.534-1.087 1.839-2.556 3.45-4.287 4.702-1.692 1.227-3.635 2.107-5.674 2.566-2.844 0.643-5.869 0.474-8.619-0.499-2.953-1.038-5.574-2.994-7.409-5.529-1.282-1.748-2.184-3.772-2.635-5.892-0.619-2.902-0.396-5.981 0.657-8.756 1.104-2.936 3.125-5.516 5.705-7.299 2.344-1.632 5.147-2.594 7.999-2.742zM7.458 7.211c-0.216 0.039-0.35 0.263-0.324 0.474 0.002 5.418-0.001 10.837 0.001 16.256-0.018 0.231 0.191 0.445 0.424 0.427 5.627 0.003 11.254-0.001 16.882 0.002 0.188-0.003 0.414 0.032 0.551-0.13 0.148-0.146 0.111-0.367 0.116-0.554-0.003-5.334-0.001-10.669-0.001-16.003 0.031-0.241-0.166-0.491-0.416-0.481-3.668-0.003-7.336 0-11.004-0.001-2.077 0.006-4.154-0.013-6.23 0.009z"></path>
<path fill="#41a8c7" d="M7.988 8.053c5.418-0.001 10.836 0 16.253-0.001 0.004 4.879 0.004 9.758 0 14.636-1.207-1.542-2.409-3.087-3.619-4.628-0.154-0.198-0.476-0.208-0.642-0.021-0.722 0.741-1.434 1.489-2.167 2.219-0.459-0.442-0.877-0.924-1.317-1.384-1.061-1.126-2.115-2.259-3.178-3.382-0.161-0.193-0.476-0.186-0.639-0.001-1.566 1.468-3.124 2.944-4.691 4.411 0.001-3.95-0.001-7.901 0.001-11.851zM19.657 10.3c-1.078 0.218-1.957 1.167-2.087 2.26-0.135 0.913 0.257 1.881 0.984 2.449 0.491 0.396 1.128 0.607 1.759 0.583 0.808-0.021 1.596-0.434 2.070-1.089 0.461-0.616 0.629-1.438 0.453-2.186-0.155-0.694-0.605-1.313-1.211-1.683-0.58-0.358-1.301-0.482-1.967-0.334z"></path>
<path fill="#41a8c7" d="M19.829 11.143c0.851-0.21 1.795 0.303 2.093 1.125 0.325 0.794-0.021 1.776-0.76 2.205-0.641 0.399-1.529 0.332-2.101-0.161-0.538-0.439-0.784-1.2-0.593-1.869 0.169-0.641 0.712-1.161 1.361-1.3z"></path>
<path fill="#fff" d="M7.458 7.211c2.076-0.022 4.153-0.003 6.23-0.009 3.668 0.001 7.336-0.002 11.004 0.001 0.25-0.010 0.446 0.24 0.416 0.481 0 5.334-0.002 10.669 0.001 16.003-0.005 0.187 0.031 0.407-0.116 0.554-0.137 0.162-0.364 0.127-0.551 0.13-5.628-0.003-11.255 0.001-16.882-0.002-0.233 0.017-0.441-0.196-0.424-0.427-0.003-5.419 0.001-10.838-0.001-16.256-0.026-0.211 0.108-0.435 0.324-0.474zM7.988 8.053c-0.001 3.95 0 7.901-0.001 11.851 1.567-1.466 3.126-2.942 4.691-4.411 0.163-0.186 0.479-0.192 0.639 0.001 1.063 1.123 2.117 2.256 3.178 3.382 0.441 0.459 0.859 0.941 1.317 1.384 0.733-0.729 1.445-1.478 2.167-2.219 0.166-0.188 0.488-0.177 0.642 0.021 1.209 1.54 2.412 3.086 3.619 4.628 0.004-4.879 0.004-9.758 0-14.636-5.418 0.001-10.835-0.001-16.253 0.001z"></path>
<path fill="#fff" d="M19.657 10.3c0.666-0.149 1.387-0.024 1.967 0.334 0.606 0.37 1.056 0.989 1.211 1.683 0.177 0.748 0.008 1.57-0.453 2.186-0.474 0.656-1.262 1.069-2.070 1.089-0.631 0.024-1.267-0.187-1.759-0.583-0.727-0.569-1.119-1.536-0.984-2.449 0.13-1.093 1.009-2.042 2.087-2.26zM19.829 11.143c-0.648 0.139-1.192 0.659-1.361 1.3-0.191 0.669 0.054 1.43 0.593 1.869 0.572 0.493 1.46 0.561 2.101 0.161 0.739-0.429 1.085-1.411 0.76-2.205-0.297-0.822-1.242-1.335-2.093-1.125z"></path>
</svg>
