<!-- Generated by IcoMoon.io -->
<svg version="1.1" xmlns="http://www.w3.org/2000/svg" width="32" height="32" viewBox="0 0 32 32">
<title>download-excel</title>
<path fill="#45a15e" d="M14.721 0.49c2.721-0.225 5.501 0.274 7.964 1.454 3.148 1.492 5.761 4.074 7.291 7.204 1.26 2.552 1.784 5.456 1.521 8.288-0.211 2.338-0.964 4.624-2.184 6.629-1.139 1.879-2.681 3.512-4.491 4.758-1.883 1.299-4.056 2.176-6.316 2.539-2.592 0.42-5.291 0.18-7.762-0.71-3.034-1.085-5.711-3.143-7.538-5.796-1.463-2.096-2.387-4.563-2.668-7.102-0.313-2.761 0.122-5.604 1.268-8.137 1.21-2.691 3.202-5.022 5.671-6.637 2.156-1.419 4.673-2.283 7.245-2.489zM6.892 8.846c0.001 4.789 0.001 9.579-0.001 14.368 3.525 0.628 7.051 1.251 10.576 1.88-0.001-6.043-0.001-12.085 0-18.128-3.525 0.628-7.051 1.252-10.576 1.879zM17.824 8.83c0.002 0.351-0.001 0.701 0.003 1.051 0.896 0.001 1.793 0 2.69 0.001 0 0.629-0.001 1.259 0 1.888-0.898 0.001-1.795 0-2.692 0.001 0.001 0.189 0.001 0.378-0.001 0.567 0.898 0.004 1.796-0.001 2.694 0.002-0.001 0.629-0.002 1.259 0.001 1.888-0.898 0.005-1.795 0.001-2.692 0.002-0.001 0.189-0.001 0.378-0.001 0.568 0.898 0.001 1.794 0 2.692 0.001 0.001 0.633 0.001 1.267-0.001 1.9-0.897 0.001-1.794-0.001-2.691 0.001 0.001 0.189 0.001 0.378 0.002 0.567 0.898 0.004 1.796-0.009 2.694 0.006-0.008 0.628-0.003 1.256-0.003 1.883-0.898 0.003-1.796-0.001-2.694 0.003 0.003 0.192 0.002 0.384 0.001 0.576 0.898 0.003 1.796 0 2.693 0.001-0.001 0.633 0.001 1.266-0.001 1.899-0.897 0-1.794-0.001-2.691 0 0 0.403 0.001 0.806-0.001 1.209 2.372 0.001 4.744 0.001 7.116-0.001 0.221 0.022 0.42-0.187 0.398-0.405 0.001-4.271 0-8.541 0.001-12.811-0.001-0.169 0.009-0.339-0.010-0.508-0.039-0.174-0.21-0.3-0.387-0.287-2.372-0.002-4.744-0.001-7.116-0.001z"></path>
<path fill="#45a15e" d="M21.070 9.883c1.010-0.001 2.019-0.002 3.029 0-0.002 0.629 0 1.259-0.001 1.888-1.010-0.001-2.019 0.001-3.029-0.001 0.005-0.629 0.002-1.258 0.001-1.887z"></path>
<path fill="#45a15e" d="M21.070 12.339c1.009-0.001 2.019 0 3.029-0.001-0.001 0.63-0.002 1.261 0.001 1.891-1.010 0.001-2.020 0.001-3.030 0 0.003-0.63 0.003-1.26 0.001-1.89z"></path>
<path fill="#45a15e" d="M13.106 12.664c0.399-0.016 0.797-0.044 1.196-0.063-0.499 1.074-0.994 2.149-1.494 3.223 0.512 1.115 1.034 2.226 1.555 3.337-0.467-0.043-0.937-0.061-1.402-0.114-0.289-0.774-0.58-1.548-0.886-2.316-0.277 0.734-0.579 1.459-0.857 2.194-0.406 0.011-0.811 0.003-1.217 0.005 0.472-1.022 0.936-2.047 1.416-3.065-0.433-1.011-0.876-2.018-1.317-3.026 0.416-0.001 0.831 0.001 1.247-0.001 0.264 0.685 0.529 1.369 0.79 2.056 0.103-0.144 0.156-0.313 0.226-0.473 0.249-0.585 0.494-1.172 0.745-1.756z"></path>
<path fill="#45a15e" d="M21.073 14.798c1.008-0.001 2.016 0.001 3.024-0.001 0.003 0.634 0.004 1.268-0.001 1.902-1.007-0.002-2.014-0.001-3.021-0.001-0.005-0.634-0.003-1.268-0.001-1.901z"></path>
<path fill="#45a15e" d="M21.070 17.267c1.009-0.002 2.019-0.001 3.029-0.001-0.003 0.63-0.001 1.26-0.001 1.891-1.009-0.003-2.019 0.001-3.029-0.002 0.003-0.629 0.003-1.259 0.001-1.888z"></path>
<path fill="#45a15e" d="M21.071 19.734c1.008-0.001 2.017 0.002 3.025-0.001 0.006 0.631-0.002 1.261 0.004 1.892-1.009 0.019-2.018 0.003-3.026 0.008-0.008-0.633-0.002-1.266-0.004-1.899z"></path>
<path fill="#fff" d="M6.892 8.846c3.525-0.627 7.051-1.251 10.576-1.879-0.001 6.043-0.001 12.085 0 18.127-3.525-0.629-7.051-1.252-10.576-1.88 0.002-4.789 0.001-9.579 0.001-14.368zM13.106 12.664c-0.251 0.584-0.496 1.171-0.745 1.756-0.069 0.16-0.123 0.329-0.226 0.473-0.261-0.686-0.526-1.371-0.79-2.056-0.416 0.002-0.831 0-1.247 0.001 0.441 1.008 0.884 2.015 1.317 3.026-0.48 1.018-0.944 2.043-1.416 3.065 0.406-0.003 0.811 0.006 1.217-0.005 0.278-0.735 0.58-1.46 0.857-2.194 0.306 0.767 0.598 1.541 0.886 2.316 0.466 0.054 0.935 0.072 1.402 0.114-0.521-1.111-1.043-2.222-1.555-3.337 0.499-1.073 0.994-2.149 1.494-3.223-0.399 0.018-0.797 0.046-1.196 0.063z"></path>
<path fill="#fff" d="M17.824 8.83c2.372 0 4.744-0.001 7.116 0.001 0.177-0.013 0.349 0.113 0.387 0.287 0.019 0.169 0.009 0.339 0.010 0.508-0.001 4.271 0.001 8.541-0.001 12.811 0.022 0.218-0.177 0.427-0.398 0.405-2.372 0.002-4.744 0.002-7.116 0.001 0.003-0.403 0.001-0.806 0.001-1.209 0.897-0.001 1.794 0 2.691 0 0.003-0.633 0.001-1.266 0.001-1.899-0.898-0.001-1.795 0.001-2.693-0.001 0.001-0.192 0.002-0.384-0.001-0.576 0.898-0.004 1.796 0 2.694-0.003 0.001-0.628-0.005-1.256 0.003-1.883-0.898-0.014-1.796-0.002-2.694-0.006-0.001-0.189-0.001-0.378-0.002-0.567 0.897-0.002 1.794 0 2.691-0.001 0.002-0.633 0.001-1.267 0.001-1.9-0.898-0.001-1.794 0.001-2.692-0.001 0.001-0.189 0.001-0.378 0.001-0.568 0.898-0.001 1.795 0.003 2.692-0.002-0.003-0.629-0.001-1.259-0.001-1.888-0.898-0.003-1.796 0.001-2.694-0.002 0.002-0.189 0.002-0.378 0.001-0.567 0.898-0.001 1.795 0.001 2.692-0.001-0.001-0.629 0-1.259 0-1.888-0.897-0.001-1.794 0-2.69-0.001-0.003-0.351-0.001-0.701-0.003-1.051zM21.070 9.883c0.001 0.629 0.004 1.258-0.001 1.887 1.010 0.002 2.019 0 3.029 0.001 0.001-0.629-0.001-1.259 0.001-1.888-1.009-0.002-2.019-0.001-3.029 0zM21.070 12.339c0.002 0.63 0.002 1.26-0.001 1.89 1.010 0.001 2.020 0.001 3.030 0-0.003-0.63-0.001-1.261-0.001-1.891-1.009 0.001-2.019 0-3.029 0.001zM21.073 14.798c-0.001 0.633-0.004 1.267 0.001 1.901 1.007 0 2.014-0.001 3.021 0.001 0.006-0.634 0.004-1.268 0.001-1.902-1.008 0.002-2.016 0.001-3.024 0.001zM21.070 17.267c0.002 0.629 0.003 1.259-0.001 1.888 1.009 0.003 2.019-0.001 3.029 0.002 0.001-0.631-0.001-1.261 0.001-1.891-1.010-0.001-2.020-0.001-3.029 0.001zM21.071 19.734c0.002 0.633-0.004 1.266 0.004 1.899 1.008-0.006 2.017 0.011 3.026-0.008-0.006-0.631 0.001-1.261-0.004-1.892-1.008 0.003-2.017 0-3.025 0.001z"></path>
</svg>
