<?xml version="1.0" encoding="UTF-8" ?>
<!DOCTYPE svg PUBLIC "-//W3C//DTD SVG 1.1//EN" "http://www.w3.org/Graphics/SVG/1.1/DTD/svg11.dtd">
<svg width="512pt" height="512pt" viewBox="0 0 512 512" version="1.1" xmlns="http://www.w3.org/2000/svg">
<g id="#ffffffff">
<path fill="#ffffff" opacity="1.00" d=" M 95.01 63.03 C 118.21 52.99 144.30 50.41 169.18 54.33 C 195.18 58.53 219.76 70.97 238.54 89.43 C 244.38 95.23 250.17 101.06 256.00 106.87 C 265.29 97.84 273.92 88.03 284.38 80.29 C 308.16 62.20 338.15 52.54 368.01 53.21 C 394.99 53.69 421.73 62.60 443.60 78.40 C 470.83 98.50 489.58 129.57 494.88 162.97 C 501.75 203.53 488.07 246.83 459.22 276.13 C 405.41 330.03 351.57 383.89 297.74 437.77 C 291.67 443.78 285.92 450.44 278.09 454.21 C 260.41 463.57 237.08 460.30 222.78 446.28 C 167.57 391.13 112.43 335.93 57.24 280.77 C 36.19 259.64 22.26 231.59 18.16 202.05 C 14.68 177.71 17.65 152.33 27.65 129.79 C 40.56 100.07 65.17 75.68 95.01 63.03 M 130.55 85.76 C 108.61 89.27 88.03 100.57 73.26 117.17 C 57.65 134.50 48.77 157.69 48.80 181.01 C 48.43 205.92 57.09 230.82 72.85 250.11 C 77.11 255.47 82.12 260.15 86.93 265.00 C 138.59 316.67 190.26 368.33 241.92 420.00 C 244.28 422.36 246.56 424.97 249.73 426.26 C 255.70 428.99 263.21 427.48 267.69 422.70 C 320.83 369.49 374.00 316.30 427.15 263.10 C 432.92 257.26 439.00 251.66 443.90 245.03 C 458.37 226.07 465.66 201.82 464.02 178.03 C 462.76 154.98 453.07 132.53 437.18 115.79 C 418.75 96.11 391.81 85.10 364.96 85.07 C 341.99 84.95 319.08 92.88 301.15 107.25 C 295.02 112.03 289.79 117.82 284.35 123.35 C 278.58 129.25 272.85 135.20 267.05 141.09 C 261.24 146.97 250.81 146.98 244.98 141.12 C 236.11 132.29 227.28 123.43 218.42 114.58 C 196.07 91.51 162.23 80.41 130.55 85.76 Z" />
</g>
</svg>
