<!-- Generated by IcoMoon.io -->
<svg version="1.1" xmlns="http://www.w3.org/2000/svg" width="32" height="32" viewBox="0 0 32 32">
<title>follow</title>
<path fill="#fff" d="M5.938 3.939c1.45-0.627 3.081-0.789 4.636-0.544 1.625 0.263 3.161 1.040 4.335 2.194 0.365 0.362 0.727 0.727 1.091 1.090 0.581-0.564 1.12-1.178 1.774-1.661 1.486-1.131 3.361-1.734 5.227-1.692 1.686 0.030 3.358 0.587 4.724 1.574 1.702 1.256 2.874 3.198 3.205 5.286 0.429 2.535-0.426 5.241-2.229 7.072-3.363 3.369-6.728 6.735-10.093 10.102-0.379 0.376-0.739 0.792-1.228 1.027-1.105 0.585-2.563 0.381-3.457-0.496-3.451-3.447-6.897-6.897-10.346-10.344-1.316-1.321-2.186-3.074-2.442-4.92-0.218-1.521-0.032-3.107 0.593-4.516 0.807-1.857 2.345-3.382 4.21-4.173zM8.159 5.36c-1.371 0.219-2.658 0.926-3.581 1.963-0.976 1.083-1.531 2.532-1.529 3.99-0.023 1.557 0.518 3.113 1.503 4.319 0.266 0.335 0.579 0.627 0.88 0.931 3.229 3.229 6.458 6.458 9.687 9.688 0.148 0.148 0.29 0.311 0.488 0.391 0.373 0.171 0.843 0.076 1.122-0.223 3.321-3.326 6.644-6.65 9.966-9.975 0.361-0.365 0.741-0.715 1.047-1.129 0.904-1.185 1.36-2.701 1.258-4.188-0.079-1.441-0.684-2.844-1.677-3.89-1.152-1.23-2.836-1.918-4.514-1.92-1.436-0.008-2.867 0.488-3.988 1.386-0.383 0.299-0.71 0.661-1.050 1.006-0.361 0.369-0.719 0.741-1.081 1.109s-1.015 0.368-1.379 0.002c-0.554-0.552-1.106-1.106-1.66-1.659-1.397-1.442-3.512-2.136-5.492-1.801z"></path>
</svg>
