<?xml version="1.0" encoding="utf-8"?>
<!-- Generator: Adobe Illustrator 19.2.0, SVG Export Plug-In . SVG Version: 6.00 Build 0)  -->
<svg version="1.1" id="Capa_1" xmlns="http://www.w3.org/2000/svg" xmlns:xlink="http://www.w3.org/1999/xlink" x="0px" y="0px"
	 viewBox="0 0 512 486.7" style="enable-background:new 0 0 512 486.7;" xml:space="preserve">
<style type="text/css">
	.st0{fill:#FFFFFF;}
</style>
<g>
	<g>
		<path class="st0" d="M503.4,216.2L273.7,6.9c-10.1-9.2-25.3-9.2-35.4,0L8.6,216.2c-8.1,7.4-10.7,18.7-6.8,28.9
			c3.9,10.2,13.6,16.8,24.5,16.8H63v209.7c0,8.3,6.7,15.1,15.1,15.1h125.9c8.3,0,15.1-6.7,15.1-15.1V344.3h74v127.3
			c0,8.3,6.7,15.1,15.1,15.1H434c8.3,0,15.1-6.7,15.1-15.1V261.9h36.7c10.9,0,20.5-6.6,24.5-16.8
			C514.1,234.9,511.5,223.6,503.4,216.2z"/>
	</g>
</g>
<g>
	<g>
		<path class="st0" d="M445.1,30.1H344l116.2,105.6V45.1C460.1,36.8,453.4,30.1,445.1,30.1z"/>
	</g>
</g>
</svg>
