<!-- Generated by IcoMoon.io -->
<svg version="1.1" xmlns="http://www.w3.org/2000/svg" width="32" height="32" viewBox="0 0 32 32">
<title>home</title>
<path fill="#fff" d="M31.464 14.274l-14.359-13.31c-0.629-0.585-1.581-0.585-2.21 0l-14.359 13.31c-0.504 0.472-0.669 1.19-0.423 1.839 0.242 0.645 0.851 1.069 1.532 1.069h2.29v13.335c0 0.524 0.419 0.96 0.948 0.96h7.867c0.52 0 0.944-0.427 0.944-0.96v-8.097h4.625v8.097c0 0.524 0.419 0.96 0.944 0.96h7.863c0.52 0 0.944-0.427 0.944-0.96v-13.335h2.294c0.681 0 1.282-0.423 1.532-1.069 0.238-0.649 0.073-1.367-0.431-1.839z"></path>
<path fill="#fff" d="M27.819 2.44h-6.319l7.262 6.714v-5.758c-0.004-0.528-0.423-0.956-0.944-0.956z"></path>
</svg>
