<!-- Generated by IcoMoon.io -->
<svg version="1.1" xmlns="http://www.w3.org/2000/svg" width="32" height="32" viewBox="0 0 32 32">
<title>layers</title>
<path fill="#fff" d="M31.499 15.054c-0.032-0.022-0.066-0.042-0.1-0.060l-2.271-1.223-12.593 6.667c-0.335 0.177-0.735 0.177-1.070 0l-12.593-6.667-2.271 1.223c-0.552 0.293-0.762 0.978-0.469 1.53 0.018 0.034 0.038 0.068 0.060 0.1l15.808 8.369 15.808-8.369c0.348-0.519 0.21-1.222-0.309-1.57z"></path>
<path fill="#fff" d="M31.862 22.314c-0.106-0.196-0.267-0.357-0.463-0.463l-2.271-1.223-12.593 6.667c-0.335 0.177-0.735 0.177-1.070 0l-12.593-6.667-2.271 1.223c-0.555 0.3-0.763 0.993-0.463 1.549 0.106 0.196 0.267 0.357 0.463 0.463l14.857 8c0.338 0.182 0.745 0.182 1.083 0l14.857-8c0.555-0.3 0.763-0.993 0.463-1.549z"></path>
<path fill="#fff" d="M31.499 8.197c-0.032-0.022-0.066-0.042-0.1-0.060l-14.857-8c-0.338-0.182-0.745-0.182-1.083 0l-14.857 8c-0.552 0.293-0.762 0.978-0.469 1.53 0.018 0.034 0.038 0.068 0.060 0.1l15.808 8.369 15.808-8.369c0.348-0.519 0.21-1.222-0.309-1.57z"></path>
</svg>
