<?xml version="1.0" encoding="UTF-8" ?>
<!DOCTYPE svg PUBLIC "-//W3C//DTD SVG 1.1//EN" "http://www.w3.org/Graphics/SVG/1.1/DTD/svg11.dtd">
<svg width="840pt" height="980pt" viewBox="0 0 840 980" version="1.1" xmlns="http://www.w3.org/2000/svg">
<g id="#ffffffff">
<path fill="#ffffff" opacity="1.00" d=" M 90.45 0.00 L 609.55 0.00 C 640.02 5.04 668.59 22.67 684.71 49.30 C 694.95 65.93 700.78 85.36 700.03 104.98 C 699.91 316.66 700.11 528.34 699.94 740.02 C 699.63 788.80 659.20 833.02 611.05 839.15 C 605.40 839.83 599.68 839.83 594.02 840.01 C 432.35 840.06 270.67 839.85 109.00 840.12 C 70.33 842.63 31.72 820.68 13.09 786.92 C 6.51 775.34 2.59 762.46 0.00 749.46 L 0.00 90.54 C 2.84 76.10 7.46 61.85 15.29 49.31 C 31.32 22.60 60.03 5.10 90.45 0.00 M 105.44 70.53 C 93.16 70.58 81.11 77.26 75.21 88.14 C 69.14 97.57 70.44 109.34 69.95 119.99 C 70.12 321.67 69.85 523.35 70.09 725.02 C 69.71 738.38 72.14 753.83 84.02 761.97 C 93.87 770.75 107.77 769.78 119.99 770.05 C 273.33 769.94 426.67 770.02 580.01 770.01 C 588.05 769.82 596.21 769.83 604.11 768.10 C 616.39 764.87 626.06 754.15 628.76 741.86 C 630.73 728.00 629.85 713.94 630.03 700.00 C 629.97 506.66 630.00 313.32 630.01 119.99 C 629.71 110.94 629.95 101.60 627.22 92.86 C 623.95 83.99 616.60 76.66 607.86 73.14 C 600.73 69.94 592.63 70.45 585.02 70.02 C 431.68 69.93 278.34 70.09 125.00 69.95 C 118.47 69.93 111.95 70.12 105.44 70.53 Z" />
<path fill="#ffffff" opacity="1.00" d=" M 770.05 210.97 C 767.49 190.15 788.45 171.07 808.93 175.15 C 823.99 175.06 835.73 187.90 840.00 201.46 L 840.00 889.55 C 834.96 920.02 817.32 948.59 790.70 964.71 C 777.87 972.71 763.26 977.45 748.43 980.00 L 201.47 980.00 C 186.85 975.72 173.64 961.98 174.98 946.00 C 172.66 926.71 190.73 908.24 209.97 909.93 C 379.98 910.09 550.00 909.96 720.02 910.01 C 731.32 909.51 743.90 910.52 753.73 903.73 C 764.58 896.76 770.25 883.68 769.96 871.01 C 770.10 651.00 769.89 430.98 770.05 210.97 Z" />
<path fill="#ffffff" opacity="1.00" d=" M 166.44 210.61 C 179.59 209.39 192.81 210.08 206.00 209.99 C 289.34 210.00 372.69 210.02 456.03 209.97 C 474.96 208.70 492.20 227.14 490.08 246.00 C 491.04 259.21 481.98 271.81 470.29 277.28 C 463.78 280.69 456.07 279.62 449.02 280.08 C 359.00 279.95 268.99 279.95 178.97 280.08 C 169.92 280.15 159.97 279.56 152.96 273.04 C 140.81 264.44 137.34 247.87 140.98 234.05 C 144.82 222.76 154.39 212.68 166.44 210.61 Z" />
<path fill="#ffffff" opacity="1.00" d=" M 166.44 385.61 C 179.59 384.39 192.81 385.08 206.00 384.99 C 312.68 385.00 419.35 385.03 526.03 384.97 C 544.96 383.69 562.20 402.14 560.08 421.00 C 561.04 434.21 551.98 446.81 540.29 452.28 C 533.78 455.69 526.07 454.61 519.02 455.08 C 405.67 454.95 292.32 454.95 178.97 455.08 C 169.92 455.14 159.97 454.56 152.96 448.04 C 140.81 439.44 137.34 422.87 140.98 409.05 C 144.82 397.76 154.39 387.68 166.44 385.61 Z" />
<path fill="#ffffff" opacity="1.00" d=" M 166.44 560.61 C 179.59 559.39 192.81 560.08 206.00 559.99 C 312.68 560.00 419.35 560.02 526.03 559.97 C 544.96 558.69 562.20 577.14 560.08 596.00 C 561.04 609.21 551.98 621.81 540.29 627.28 C 533.78 630.69 526.07 629.61 519.02 630.08 C 404.00 629.92 288.98 630.01 173.97 630.03 C 156.92 631.17 140.44 616.03 140.09 598.97 C 136.87 581.88 149.51 563.74 166.44 560.61 Z" />
</g>
</svg>
