<!-- Generated by IcoMoon.io -->
<svg version="1.1" xmlns="http://www.w3.org/2000/svg" width="27" height="32" viewBox="0 0 27 32">
<title>lesson</title>
<path fill="#fff" d="M2.953 0h16.95c0.995 0.165 1.928 0.74 2.454 1.61 0.334 0.543 0.525 1.177 0.5 1.818-0.004 6.912 0.003 13.824-0.003 20.736-0.010 1.593-1.33 3.037-2.903 3.237-0.184 0.022-0.371 0.022-0.556 0.028-5.279 0.002-10.558-0.005-15.837 0.004-1.263 0.082-2.523-0.635-3.132-1.737-0.215-0.378-0.343-0.799-0.427-1.223v-21.516c0.093-0.471 0.244-0.937 0.499-1.346 0.523-0.872 1.461-1.444 2.454-1.61zM3.443 2.303c-0.401 0.002-0.794 0.22-0.987 0.575-0.198 0.308-0.156 0.692-0.172 1.040 0.006 6.585-0.003 13.171 0.005 19.756-0.012 0.436 0.067 0.941 0.455 1.207 0.322 0.287 0.776 0.255 1.175 0.264 5.007-0.004 10.014-0.001 15.021-0.001 0.263-0.006 0.529-0.006 0.787-0.062 0.401-0.105 0.717-0.456 0.805-0.857 0.064-0.453 0.036-0.912 0.041-1.367-0.002-6.313-0.001-12.626-0.001-18.939-0.010-0.296-0.002-0.601-0.091-0.886-0.107-0.29-0.347-0.529-0.632-0.644-0.233-0.104-0.497-0.088-0.746-0.102-5.007-0.003-10.014 0.002-15.021-0.002-0.213-0.001-0.426 0.006-0.639 0.019z"></path>
<path fill="#fff" d="M25.145 6.889c-0.084-0.68 0.601-1.303 1.27-1.17 0.492-0.003 0.875 0.416 1.015 0.859v22.468c-0.165 0.995-0.741 1.928-1.61 2.454-0.419 0.261-0.896 0.416-1.38 0.499h-17.86c-0.477-0.14-0.909-0.588-0.865-1.11-0.076-0.63 0.514-1.233 1.143-1.178 5.551 0.005 11.103 0.001 16.655 0.003 0.369-0.016 0.78 0.017 1.101-0.205 0.354-0.228 0.539-0.655 0.53-1.068 0.005-7.184-0.002-14.368 0.003-21.552z"></path>
<path fill="#fff" d="M5.435 6.877c0.429-0.040 0.861-0.017 1.292-0.020 2.721 0 5.443 0.001 8.164-0.001 0.618-0.041 1.181 0.561 1.112 1.176 0.031 0.431-0.264 0.843-0.646 1.021-0.213 0.111-0.464 0.076-0.695 0.091-2.939-0.004-5.879-0.004-8.818 0-0.295 0.002-0.62-0.017-0.849-0.23-0.397-0.281-0.51-0.822-0.391-1.273 0.125-0.369 0.438-0.698 0.831-0.765z"></path>
<path fill="#fff" d="M5.435 12.591c0.429-0.040 0.861-0.017 1.292-0.020 3.483 0 6.967 0.001 10.45-0.001 0.618-0.042 1.181 0.561 1.112 1.177 0.031 0.431-0.265 0.843-0.646 1.021-0.213 0.111-0.464 0.076-0.695 0.091-3.701-0.004-7.402-0.004-11.104 0-0.295 0.002-0.62-0.017-0.849-0.23-0.397-0.281-0.51-0.822-0.391-1.273 0.125-0.369 0.438-0.698 0.831-0.765z"></path>
<path fill="#fff" d="M5.435 18.306c0.429-0.040 0.861-0.017 1.292-0.020 3.483 0 6.967 0.001 10.45-0.001 0.618-0.042 1.181 0.561 1.112 1.177 0.031 0.431-0.265 0.843-0.646 1.021-0.213 0.111-0.464 0.076-0.695 0.091-3.756-0.005-7.511-0.002-11.267-0.002-0.557 0.037-1.095-0.457-1.106-1.014-0.105-0.558 0.308-1.15 0.86-1.253z"></path>
</svg>
