<!-- Generated by IcoMoon.io -->
<svg version="1.1" xmlns="http://www.w3.org/2000/svg" width="32" height="32" viewBox="0 0 32 32">
<title>location</title>
<path fill="#fff" d="M21.488 11.414c0 3.148-2.566 5.707-5.734 5.707-3.164 0-5.73-2.559-5.73-5.707 0-3.152 2.566-5.707 5.73-5.707 3.168 0 5.734 2.555 5.734 5.707zM27.434 11.414c0-6.305-5.133-11.414-11.465-11.414s-11.465 5.109-11.465 11.414c0 2.77 0.992 5.313 2.645 7.289l8.832 12.684 8.961-12.871c0.32-0.398 0.613-0.82 0.883-1.266l0.090-0.129h-0.016c0.977-1.68 1.535-3.629 1.535-5.707z"></path>
</svg>
