<!-- Generated by IcoMoon.io -->
<svg version="1.1" xmlns="http://www.w3.org/2000/svg" width="32" height="32" viewBox="0 0 32 32">
<title>logout</title>
<path fill="#fff" d="M15.471 0.486c0.516-0.098 1.081-0.074 1.548 0.186 0.442 0.237 0.783 0.657 0.913 1.143 0.086 0.283 0.067 0.583 0.068 0.874 0 4.771 0 9.542 0 14.312 0.013 0.449-0.139 0.901-0.426 1.248-0.375 0.462-0.977 0.719-1.571 0.689-0.504 0.026-1.012-0.152-1.387-0.488-0.387-0.349-0.618-0.866-0.616-1.387 0.001-4.938-0.002-9.876 0.002-14.814 0.011-0.836 0.657-1.592 1.469-1.764z"></path>
<path fill="#fff" d="M9.749 5.124c0.836-0.432 1.719-0.769 2.626-1.021 0.002 1.194-0.001 2.389 0.002 3.583-0.019 0.077 0.046 0.22-0.068 0.243-2.312 0.93-4.242 2.761-5.292 5.020-0.878 1.851-1.16 3.976-0.806 5.993 0.31 1.786 1.114 3.484 2.307 4.85 1.913 2.235 4.857 3.536 7.797 3.454 2.585-0.045 5.13-1.148 6.934-2.997 1.926-1.944 2.993-4.705 2.866-7.44-0.074-1.957-0.744-3.886-1.895-5.471-1.141-1.589-2.764-2.822-4.596-3.509 0.001-1.237-0.001-2.473 0.001-3.709 3.409 0.939 6.408 3.263 8.166 6.331 1.452 2.486 2.066 5.441 1.754 8.301-0.269 2.554-1.287 5.021-2.889 7.027-1.469 1.849-3.423 3.312-5.619 4.183-2.414 0.976-5.111 1.218-7.664 0.727-3.171-0.599-6.095-2.383-8.095-4.914-1.313-1.645-2.237-3.599-2.671-5.659-0.525-2.481-0.347-5.109 0.52-7.492 1.159-3.215 3.574-5.952 6.621-7.5z"></path>
</svg>
