<?xml version="1.0" encoding="UTF-8" ?>
<!DOCTYPE svg PUBLIC "-//W3C//DTD SVG 1.1//EN" "http://www.w3.org/Graphics/SVG/1.1/DTD/svg11.dtd">
<svg width="512pt" height="512pt" viewBox="0 0 512 512" version="1.1" xmlns="http://www.w3.org/2000/svg">
<g id="#ffffffff">
<path fill="#ffffff" opacity="1.00" d=" M 247.53 7.77 C 255.78 6.20 264.82 6.59 272.30 10.75 C 279.37 14.54 284.83 21.26 286.91 29.03 C 288.28 33.56 287.98 38.35 288.00 43.02 C 288.00 119.35 288.00 195.69 288.00 272.02 C 288.21 279.21 285.78 286.44 281.19 291.99 C 275.19 299.39 265.55 303.50 256.06 303.02 C 247.99 303.44 239.87 300.59 233.86 295.21 C 227.66 289.62 223.97 281.36 224.00 273.01 C 224.02 194.00 223.96 114.99 224.03 35.99 C 224.21 22.62 234.54 10.52 247.53 7.77 Z" />
<path fill="#ffffff" opacity="1.00" d=" M 155.98 81.99 C 169.35 75.08 183.49 69.68 197.99 65.66 C 198.02 84.77 197.97 103.88 198.02 122.99 C 197.72 124.22 198.75 126.51 196.94 126.88 C 159.95 141.76 129.07 171.05 112.27 207.20 C 98.22 236.82 93.71 270.81 99.38 303.09 C 104.34 331.66 117.21 358.84 136.29 380.69 C 166.90 416.45 214.00 437.27 261.05 435.95 C 302.41 435.23 343.13 417.59 372.00 387.99 C 402.81 356.88 419.89 312.71 417.85 268.95 C 416.67 237.64 405.95 206.77 387.53 181.42 C 369.28 155.99 343.30 136.26 314.00 125.27 C 314.01 105.48 313.98 85.70 314.02 65.92 C 368.56 80.95 416.55 118.12 444.68 167.21 C 467.91 206.98 477.74 254.27 472.74 300.03 C 468.44 340.89 452.15 380.37 426.51 412.46 C 403.00 442.04 371.74 465.45 336.61 479.39 C 297.99 495.01 254.84 498.87 213.98 491.03 C 163.24 481.45 116.46 452.90 84.46 412.41 C 63.46 386.09 48.67 354.82 41.73 321.87 C 33.33 282.17 36.18 240.13 50.05 201.99 C 68.60 150.55 107.23 106.76 155.98 81.99 Z" />
</g>
</svg>
