<!-- Generated by IcoMoon.io -->
<svg version="1.1" xmlns="http://www.w3.org/2000/svg" width="32" height="32" viewBox="0 0 32 32">
<title>m-notification</title>
<path fill="#9b9b9b" d="M28.527 22.551c-2.016-1.703-3.172-4.195-3.172-6.832v-3.719c0-4.691-3.488-8.574-8-9.227v-1.441c0-0.734-0.598-1.332-1.336-1.332-0.734 0-1.332 0.598-1.332 1.332v1.441c-4.516 0.652-8 4.535-8 9.227v3.719c0 2.637-1.156 5.129-3.184 6.844-0.52 0.441-0.816 1.090-0.816 1.77 0 1.289 1.047 2.336 2.332 2.336h22c1.289 0 2.336-1.047 2.336-2.336 0-0.68-0.297-1.328-0.828-1.781z"></path>
<path fill="#9b9b9b" d="M16.020 32c2.418 0 4.438-1.723 4.898-4h-9.797c0.465 2.277 2.484 4 4.898 4z"></path>
</svg>
