<!-- Generated by IcoMoon.io -->
<svg version="1.1" xmlns="http://www.w3.org/2000/svg" width="32" height="32" viewBox="0 0 32 32">
<title>m-off</title>
<path fill="#9b9b9b" d="M21.27 2.504v4.059c3.695 1.906 6.23 5.762 6.23 10.211 0 6.348-5.148 11.496-11.496 11.496-6.352 0-11.5-5.148-11.5-11.496 0-4.082 2.137-7.66 5.34-9.699v-4.219c-5.336 2.367-9.066 7.703-9.066 13.918 0 8.41 6.813 15.227 15.223 15.227s15.227-6.816 15.227-15.227c-0.004-6.555-4.156-12.125-9.957-14.27z"></path>
<path fill="#9b9b9b" d="M15.707 18.738c1.672 0 1.844-0.988 1.844-2.203v-14.328c0-1.219-0.172-2.207-1.844-2.207-1.668 0-1.84 0.988-1.84 2.207v14.328c0 1.219 0.172 2.203 1.84 2.203z"></path>
</svg>
