<!-- Generated by IcoMoon.io -->
<svg version="1.1" xmlns="http://www.w3.org/2000/svg" width="32" height="32" viewBox="0 0 32 32">
<title>m-password</title>
<path fill="#9b9b9b" d="M27.332 12h-2v-2.668c0-5.145-4.184-9.332-9.332-9.332s-9.332 4.188-9.332 9.332v2.668h-2c-0.371 0-0.668 0.297-0.668 0.668v16.664c0 1.473 1.195 2.668 2.668 2.668h18.664c1.473 0 2.668-1.195 2.668-2.668v-16.664c0-0.371-0.297-0.668-0.668-0.668zM17.996 25.926c0.020 0.188-0.039 0.379-0.164 0.52-0.129 0.141-0.309 0.223-0.5 0.223h-2.664c-0.191 0-0.371-0.082-0.496-0.223-0.129-0.141-0.188-0.332-0.168-0.52l0.422-3.781c-0.684-0.496-1.094-1.281-1.094-2.145 0-1.469 1.199-2.668 2.668-2.668 1.473 0 2.668 1.195 2.668 2.668 0 0.863-0.41 1.648-1.094 2.145zM21.332 12h-10.664v-2.668c0-2.941 2.391-5.332 5.332-5.332s5.332 2.391 5.332 5.332z"></path>
</svg>
