<!-- Generated by IcoMoon.io -->
<svg version="1.1" xmlns="http://www.w3.org/2000/svg" width="32" height="32" viewBox="0 0 32 32">
<title>m-profile</title>
<path fill="#9b9b9b" d="M16 0c-4.652 0-8.438 3.785-8.438 8.438s3.785 8.438 8.438 8.438c4.652 0 8.438-3.785 8.438-8.438s-3.785-8.438-8.438-8.438z"></path>
<path fill="#9b9b9b" d="M26.496 22.387c-2.309-2.344-5.371-3.637-8.621-3.637h-3.75c-3.25 0-6.313 1.293-8.621 3.637-2.301 2.336-3.566 5.414-3.566 8.676 0 0.52 0.418 0.938 0.938 0.938h26.25c0.52 0 0.938-0.418 0.938-0.938 0-3.262-1.266-6.34-3.566-8.676z"></path>
</svg>
