<!-- Generated by IcoMoon.io -->
<svg version="1.1" xmlns="http://www.w3.org/2000/svg" width="32" height="32" viewBox="0 0 32 32">
<title>m-settings</title>
<path fill="#9b9b9b" d="M31.262 20.207l-3.379-2.648c0.066-0.512 0.113-1.031 0.113-1.559s-0.047-1.047-0.113-1.559l3.387-2.648c0.301-0.242 0.391-0.672 0.191-1.023l-3.199-5.547c-0.203-0.344-0.617-0.488-0.977-0.344l-3.984 1.609c-0.824-0.633-1.73-1.168-2.703-1.578l-0.602-4.238c-0.070-0.375-0.398-0.672-0.801-0.672h-6.398c-0.402 0-0.73 0.297-0.793 0.672l-0.602 4.238c-0.973 0.41-1.879 0.938-2.703 1.578l-3.984-1.609c-0.359-0.137-0.773 0-0.977 0.344l-3.199 5.547c-0.199 0.344-0.109 0.773 0.191 1.023l3.379 2.648c-0.066 0.512-0.113 1.031-0.113 1.559s0.047 1.047 0.113 1.559l-3.379 2.648c-0.301 0.242-0.391 0.672-0.191 1.023l3.199 5.547c0.203 0.344 0.617 0.488 0.977 0.344l3.984-1.609c0.824 0.633 1.73 1.168 2.703 1.578l0.602 4.238c0.063 0.375 0.391 0.672 0.793 0.672h6.398c0.402 0 0.73-0.297 0.793-0.672l0.602-4.238c0.973-0.41 1.879-0.938 2.703-1.578l3.984 1.609c0.359 0.137 0.773 0 0.973-0.344l3.203-5.547c0.199-0.344 0.109-0.773-0.191-1.023zM15.996 21.602c-3.098 0-5.602-2.504-5.602-5.602s2.504-5.602 5.602-5.602c3.098 0 5.602 2.504 5.602 5.602s-2.504 5.602-5.602 5.602z"></path>
</svg>
