<!-- Generated by IcoMoon.io -->
<svg version="1.1" xmlns="http://www.w3.org/2000/svg" width="32" height="32" viewBox="0 0 32 32">
<title>mail</title>
<path fill="#dfdfdf" d="M0.668 5.945c4.391 3.723 12.098 10.266 14.363 12.305 0.305 0.277 0.629 0.414 0.969 0.414 0.336 0 0.664-0.137 0.969-0.41 2.266-2.043 9.973-8.586 14.363-12.309 0.273-0.23 0.316-0.637 0.094-0.918-0.512-0.652-1.273-1.027-2.094-1.027h-26.664c-0.82 0-1.582 0.375-2.094 1.027-0.223 0.281-0.18 0.688 0.094 0.918z"></path>
<path fill="#dfdfdf" d="M31.613 7.961c-0.234-0.109-0.516-0.070-0.711 0.098-4.871 4.129-11.086 9.422-13.043 11.184-1.098 0.992-2.621 0.992-3.723 0-2.082-1.879-9.063-7.813-13.039-11.184-0.199-0.168-0.477-0.203-0.711-0.098-0.234 0.109-0.387 0.348-0.387 0.605v16.766c0 1.473 1.195 2.668 2.668 2.668h26.664c1.473 0 2.668-1.195 2.668-2.668v-16.766c0-0.258-0.152-0.496-0.387-0.605z"></path>
</svg>
