<!-- Generated by IcoMoon.io -->
<svg version="1.1" xmlns="http://www.w3.org/2000/svg" width="32" height="32" viewBox="0 0 32 32">
<title>manage</title>
<path fill="#fff" d="M13.539 0h-12.309c-0.68 0-1.23 0.551-1.23 1.23v12.309c0 0.68 0.551 1.23 1.23 1.23h12.309c0.68 0 1.23-0.551 1.23-1.23v-12.309c0-0.68-0.551-1.23-1.23-1.23z"></path>
<path fill="#fff" d="M30.77 0h-12.309c-0.68 0-1.23 0.551-1.23 1.23v12.309c0 0.68 0.551 1.23 1.23 1.23h12.309c0.68 0 1.23-0.551 1.23-1.23v-12.309c0-0.68-0.551-1.23-1.23-1.23z"></path>
<path fill="#fff" d="M13.539 17.23h-12.309c-0.68 0-1.23 0.551-1.23 1.23v12.309c0 0.68 0.551 1.23 1.23 1.23h12.309c0.68 0 1.23-0.551 1.23-1.23v-12.309c0-0.68-0.551-1.23-1.23-1.23z"></path>
<path fill="#fff" d="M30.77 17.23h-12.309c-0.68 0-1.23 0.551-1.23 1.23v12.309c0 0.68 0.551 1.23 1.23 1.23h12.309c0.68 0 1.23-0.551 1.23-1.23v-12.309c0-0.68-0.551-1.23-1.23-1.23z"></path>
</svg>
