<?xml version="1.0"?>
<svg xmlns="http://www.w3.org/2000/svg" id="Capa_1" enable-background="new 0 0 501.13 501.13" height="512" viewBox="0 0 501.13 501.13" width="512" class=""><g><g><g><path d="m117 90.565v316h-117v-20z" data-original="#000000" class="active-path" style="fill:#FFFFFF" data-old_color="#000000"/></g><path d="m287 378.985v-73.2l146-146.43v-83.79h-67v-33h-30v33h-33v-33h-30v33h-33v-33h-30v33h-63v383h286v-155.57l-75.77 75.99zm-85-220.42h101v30h-101zm64 90h-64v-30h64z" data-original="#000000" class="active-path" style="fill:#FFFFFF" data-old_color="#000000"/><path d="m427.32 207.525-110.32 110.66v30.8h27.77c24.947-25.022 87.637-87.901 111.84-112.17z" data-original="#000000" class="active-path" style="fill:#FFFFFF" data-old_color="#000000"/><path d="m501.13 192.165-23.33 23.4-29.29-29.29 23.39-23.46z" data-original="#000000" class="active-path" style="fill:#FFFFFF" data-old_color="#000000"/></g></g> </svg>
