<!-- Generated by IcoMoon.io -->
<svg version="1.1" xmlns="http://www.w3.org/2000/svg" width="32" height="32" viewBox="0 0 32 32">
<title>plan</title>
<path fill="#fff" d="M7.473 5.781v20.18h-7.473v-1.277z"></path>
<path fill="#fff" d="M18.328 24.199v-4.672l9.32-9.352v-5.352h-4.277v-2.105h-1.914v2.105h-2.109v-2.105h-1.914v2.105h-2.109v-2.105h-1.914v2.105h-4.023v24.457h18.262v-9.934l-4.836 4.852zM12.898 10.125h6.449v1.914h-6.449zM16.984 15.871h-4.086v-1.914h4.086z"></path>
<path fill="#fff" d="M27.285 13.25l-7.043 7.066v1.969h1.773c1.594-1.598 5.598-5.613 7.141-7.164z"></path>
<path fill="#fff" d="M32 12.27l-1.488 1.496-1.871-1.871 1.492-1.496z"></path>
</svg>
