<!-- Generated by IcoMoon.io -->
<svg version="1.1" xmlns="http://www.w3.org/2000/svg" width="32" height="32" viewBox="0 0 32 32">
<title>profile</title>
<path fill="#fff" d="M15.773 15.414c2.117 0 3.949-0.758 5.449-2.258 1.496-1.5 2.258-3.332 2.258-5.449s-0.762-3.949-2.258-5.449c-1.5-1.5-3.332-2.258-5.449-2.258-2.121 0-3.953 0.758-5.449 2.258-1.5 1.5-2.258 3.332-2.258 5.449s0.758 3.953 2.258 5.449c1.496 1.5 3.332 2.258 5.449 2.258z"></path>
<path fill="#fff" d="M29.258 24.605c-0.043-0.621-0.129-1.305-0.258-2.020-0.133-0.727-0.297-1.41-0.5-2.035-0.207-0.645-0.488-1.285-0.836-1.895-0.359-0.637-0.781-1.188-1.258-1.645-0.5-0.473-1.105-0.855-1.813-1.137-0.699-0.277-1.477-0.418-2.309-0.418-0.328 0-0.645 0.133-1.254 0.531-0.375 0.246-0.816 0.527-1.305 0.84-0.418 0.27-0.988 0.52-1.688 0.746-0.684 0.223-1.379 0.332-2.066 0.332-0.684 0-1.379-0.109-2.066-0.332-0.699-0.227-1.266-0.477-1.688-0.742-0.484-0.313-0.922-0.594-1.305-0.844-0.609-0.398-0.926-0.531-1.25-0.531-0.832 0-1.609 0.141-2.313 0.418-0.703 0.281-1.313 0.66-1.813 1.137-0.473 0.457-0.898 1.008-1.258 1.645-0.348 0.609-0.629 1.25-0.836 1.895-0.199 0.625-0.367 1.309-0.496 2.035-0.129 0.715-0.219 1.395-0.262 2.020-0.039 0.613-0.063 1.25-0.063 1.891 0 1.672 0.531 3.023 1.578 4.020 1.035 0.984 2.402 1.484 4.066 1.484h15.41c1.664 0 3.031-0.5 4.066-1.484 1.047-0.996 1.578-2.348 1.578-4.020 0-0.645-0.023-1.281-0.066-1.891z"></path>
</svg>
