<!-- Generated by IcoMoon.io -->
<svg version="1.1" xmlns="http://www.w3.org/2000/svg" width="32" height="32" viewBox="0 0 32 32">
<title>reports</title>
<path fill="#fff" d="M30.855 8h-5.711v-6.855c0-0.633-0.512-1.145-1.145-1.145h-22.855c-0.633 0-1.145 0.512-1.145 1.145v26.285c0 2.523 2.047 4.57 4.57 4.57h22.859c2.523 0 4.57-2.047 4.57-4.57v-18.285c0-0.633-0.512-1.145-1.145-1.145zM9.145 5.715h6.855c0.633 0 1.145 0.512 1.145 1.141 0 0.633-0.512 1.145-1.145 1.145h-6.855c-0.633 0-1.145-0.512-1.145-1.145 0-0.629 0.512-1.141 1.145-1.141zM19.43 27.43h-13.715c-0.633 0-1.145-0.512-1.145-1.145 0-0.629 0.512-1.141 1.145-1.141h13.715c0.629 0 1.141 0.512 1.141 1.141 0 0.633-0.512 1.145-1.141 1.145zM19.43 22.855h-13.715c-0.633 0-1.145-0.512-1.145-1.141 0-0.633 0.512-1.145 1.145-1.145h13.715c0.629 0 1.141 0.512 1.141 1.145 0 0.629-0.512 1.141-1.141 1.141zM19.43 18.285h-13.715c-0.633 0-1.145-0.512-1.145-1.141 0-0.633 0.512-1.145 1.145-1.145h13.715c0.629 0 1.141 0.512 1.141 1.145 0 0.629-0.512 1.141-1.141 1.141zM19.43 13.715h-13.715c-0.633 0-1.145-0.512-1.145-1.145 0-0.629 0.512-1.141 1.145-1.141h13.715c0.629 0 1.141 0.512 1.141 1.141 0 0.633-0.512 1.145-1.141 1.145zM29.715 27.43c0 1.262-1.023 2.285-2.285 2.285s-2.285-1.023-2.285-2.285v-17.145h4.57z"></path>
</svg>
