<!-- Generated by IcoMoon.io -->
<svg version="1.1" xmlns="http://www.w3.org/2000/svg" width="32" height="32" viewBox="0 0 32 32">
<title>search</title>
<path fill="#fff" d="M30.977 29.148l-7.613-7.922c1.957-2.328 3.031-5.258 3.031-8.305 0-7.125-5.797-12.922-12.922-12.922s-12.918 5.797-12.918 12.922c0 7.121 5.793 12.918 12.918 12.918 2.676 0 5.223-0.805 7.402-2.336l7.672 7.98c0.324 0.332 0.754 0.516 1.215 0.516 0.438 0 0.855-0.168 1.168-0.469 0.672-0.645 0.691-1.715 0.047-2.383zM13.473 3.371c5.266 0 9.551 4.281 9.551 9.551 0 5.266-4.285 9.547-9.551 9.547s-9.551-4.281-9.551-9.547c0-5.27 4.285-9.551 9.551-9.551z"></path>
</svg>
