<!-- Generated by IcoMoon.io -->
<svg version="1.1" xmlns="http://www.w3.org/2000/svg" width="32" height="32" viewBox="0 0 32 32">
<title>student</title>
<path fill="#fff" d="M16 19.197l-9.546-2.938v4.907c0 2.269 4.275 4.108 9.549 4.108s9.549-1.839 9.549-4.108c0-0.018-0.006-0.036-0.006-0.053v-4.854l-9.546 2.938z"></path>
<path fill="#fff" d="M0 12.881l3.41 1.22 0.291-0.622 1.253-0.107 0.179 0.186-1.075 0.255-0.157 0.464c-0 0-2.428 5.076-2.072 7.559 0 0 1.516 0.904 3.031 0l0.403-6.79v-0.565l2.255-0.509-0.159 0.392-1.681 0.547 0.778 0.278 9.546 2.938 9.546-2.938 6.454-2.308-16-6.156-16 6.156z"></path>
</svg>
