<!-- Generated by IcoMoon.io -->
<svg version="1.1" xmlns="http://www.w3.org/2000/svg" width="32" height="32" viewBox="0 0 32 32">
<title>students</title>
<path fill="#fff" d="M15.643 2.899c0.956-0.088 1.939 0.187 2.71 0.759 0.839 0.612 1.426 1.564 1.582 2.592 0.163 0.984-0.078 2.026-0.642 2.848-0.584 0.867-1.524 1.488-2.552 1.681-0.872 0.176-1.8 0.029-2.585-0.386-0.766-0.4-1.392-1.056-1.759-1.838-0.456-0.954-0.503-2.091-0.128-3.079 0.514-1.408 1.878-2.458 3.375-2.578z"></path>
<path fill="#fff" d="M7.713 8.352c0.605-0.154 1.265-0.088 1.825 0.191 0.689 0.333 1.224 0.973 1.423 1.714 0.177 0.639 0.106 1.345-0.203 1.933-0.36 0.709-1.049 1.241-1.828 1.404-0.864 0.196-1.813-0.083-2.44-0.706-0.497-0.474-0.789-1.144-0.819-1.829-0.058-1.234 0.839-2.425 2.042-2.707z"></path>
<path fill="#fff" d="M22.968 8.355c0.676-0.178 1.419-0.070 2.021 0.284 0.657 0.384 1.143 1.054 1.286 1.804 0.145 0.672-0.005 1.396-0.376 1.971-0.384 0.596-1.008 1.036-1.704 1.179-0.723 0.162-1.507-0.004-2.109-0.432-0.766-0.533-1.221-1.482-1.132-2.413 0.070-1.121 0.927-2.127 2.014-2.394z"></path>
<path fill="#fff" d="M2.596 11.606c0.358-0.063 0.741-0.049 1.076 0.101 0.681 0.274 1.151 0.998 1.113 1.733-0.014 0.889-0.782 1.686-1.67 1.734-0.923 0.095-1.823-0.64-1.931-1.557-0.145-0.906 0.519-1.831 1.412-2.011z"></path>
<path fill="#fff" d="M28.6 11.616c0.55-0.126 1.159 0.004 1.587 0.379 0.487 0.404 0.738 1.077 0.615 1.701-0.113 0.653-0.617 1.217-1.251 1.407-0.558 0.174-1.196 0.054-1.65-0.315-0.55-0.426-0.817-1.186-0.63-1.861 0.158-0.637 0.691-1.158 1.329-1.311z"></path>
<path fill="#fff" d="M14.825 12.029c1.371-0.266 2.831-0.054 4.066 0.602 2.027 1.043 3.395 3.266 3.348 5.554 0.001 3.644-0.001 7.287 0.001 10.931-4.161-0.001-8.321-0.001-12.482 0 0.002-3.644 0.001-7.287 0.001-10.931-0.028-1.461 0.514-2.916 1.454-4.031 0.912-1.095 2.211-1.863 3.612-2.126z"></path>
<path fill="#fff" d="M6.141 15.326c1.011-0.621 2.286-0.79 3.42-0.435-0.335 0.713-0.613 1.459-0.724 2.242-0.073 0.43-0.080 0.867-0.078 1.303 0 2.776 0.001 5.552 0 8.328-1.561 0.005-3.122-0.006-4.682 0.006-0.049-0.296-0.004-0.596-0.008-0.893-0.006-1.98-0.003-3.958-0.004-5.939 0.001-0.104 0.001-0.209 0.001-0.313 0.004-0.483-0.028-0.971 0.077-1.446 0.223-1.177 0.974-2.235 1.998-2.854z"></path>
<path fill="#fff" d="M22.439 14.887c0.914-0.276 1.919-0.235 2.803 0.131 1.488 0.588 2.581 2.065 2.681 3.665 0.016 0.397 0.001 0.794 0.011 1.192-0.005 0.25-0.005 0.5 0 0.75-0.005 0.188-0.004 0.375 0 0.563-0.003 0.541-0.006 1.083 0 1.624-0.005 0.417-0.005 0.834 0 1.251-0.008 0.542 0.008 1.083 0 1.625-0.007 0.359-0.001 0.718-0.003 1.077-1.565-0.001-3.129 0.001-4.693-0.001-0.001-2.839 0-5.677-0.001-8.515 0.016-0.961-0.186-1.918-0.556-2.803-0.074-0.189-0.182-0.364-0.241-0.558z"></path>
<path fill="#fff" d="M1.927 16.413c0.598-0.232 1.271-0.258 1.882-0.061-0.471 0.797-0.747 1.719-0.736 2.648 0 1.885-0.001 3.77 0 5.654-1.024 0.005-2.049 0.002-3.073 0.002v-5.865c0.081-0.218 0.119-0.448 0.203-0.664 0.299-0.78 0.942-1.421 1.724-1.714z"></path>
<path fill="#fff" d="M28.192 16.352c0.522-0.166 1.089-0.18 1.616-0.027 0.898 0.242 1.658 0.934 1.989 1.803 0.085 0.219 0.125 0.452 0.203 0.674v5.854c-1.024 0.002-2.049 0.003-3.073-0.001 0.001-1.718 0-3.437 0.001-5.155-0.003-0.461 0.017-0.926-0.076-1.379-0.109-0.623-0.341-1.223-0.659-1.768z"></path>
</svg>
