<?xml version="1.0" encoding="UTF-8" ?>
<!DOCTYPE svg PUBLIC "-//W3C//DTD SVG 1.1//EN" "http://www.w3.org/Graphics/SVG/1.1/DTD/svg11.dtd">
<svg width="512pt" height="512pt" viewBox="0 0 512 512" version="1.1" xmlns="http://www.w3.org/2000/svg">
<g id="#ffffffff">
<path fill="#ffffff" opacity="1.00" d=" M 250.28 46.38 C 265.58 44.97 281.31 49.37 293.64 58.53 C 307.06 68.33 316.46 83.55 318.95 100.01 C 321.55 115.76 317.70 132.43 308.67 145.57 C 299.32 159.45 284.29 169.37 267.84 172.46 C 253.89 175.27 239.04 172.92 226.48 166.29 C 214.23 159.89 204.21 149.40 198.33 136.89 C 191.03 121.63 190.28 103.44 196.28 87.62 C 204.50 65.09 226.33 48.29 250.28 46.38 Z" />
<path fill="#ffffff" opacity="1.00" d=" M 123.40 133.64 C 133.08 131.17 143.64 132.23 152.60 136.69 C 163.63 142.02 172.19 152.26 175.37 164.11 C 178.20 174.34 177.07 185.63 172.13 195.04 C 166.37 206.38 155.34 214.89 142.88 217.51 C 129.06 220.64 113.87 216.18 103.84 206.21 C 95.89 198.63 91.21 187.90 90.73 176.95 C 89.81 157.21 104.15 138.15 123.40 133.64 Z" />
<path fill="#ffffff" opacity="1.00" d=" M 367.49 133.68 C 378.31 130.84 390.20 132.56 399.82 138.23 C 410.33 144.38 418.11 155.10 420.39 167.10 C 422.71 177.86 420.31 189.43 414.38 198.64 C 408.23 208.17 398.25 215.21 387.11 217.51 C 375.55 220.11 363.00 217.45 353.37 210.60 C 341.12 202.08 333.84 186.88 335.26 171.99 C 336.38 154.06 350.10 137.95 367.49 133.68 Z" />
<path fill="#ffffff" opacity="1.00" d=" M 41.53 185.70 C 47.26 184.70 53.38 184.91 58.75 187.32 C 69.64 191.71 77.16 203.29 76.56 215.05 C 76.34 229.27 64.04 242.03 49.84 242.80 C 35.07 244.32 20.68 232.56 18.94 217.88 C 16.62 203.38 27.24 188.59 41.53 185.70 Z" />
<path fill="#ffffff" opacity="1.00" d=" M 457.60 185.85 C 466.40 183.84 476.14 185.91 482.99 191.92 C 490.78 198.39 494.80 209.15 492.83 219.13 C 491.02 229.58 482.95 238.60 472.81 241.64 C 463.88 244.43 453.67 242.51 446.41 236.60 C 437.61 229.78 433.33 217.62 436.33 206.83 C 438.86 196.63 447.39 188.30 457.60 185.85 Z" />
<path fill="#ffffff" opacity="1.00" d=" M 237.20 192.46 C 259.14 188.21 282.50 191.60 302.25 202.09 C 334.68 218.78 356.57 254.35 355.82 290.95 C 355.83 349.25 355.80 407.55 355.84 465.85 C 289.27 465.84 222.70 465.84 156.13 465.85 C 156.17 407.55 156.14 349.26 156.15 290.96 C 155.70 267.59 164.37 244.30 179.41 226.47 C 194.00 208.95 214.78 196.67 237.20 192.46 Z" />
<path fill="#ffffff" opacity="1.00" d=" M 98.25 245.21 C 114.42 235.27 134.82 232.57 152.97 238.25 C 147.61 249.65 143.16 261.60 141.39 274.13 C 140.22 281.01 140.11 288.01 140.15 294.98 C 140.15 339.39 140.16 383.81 140.15 428.22 C 115.18 428.30 90.20 428.13 65.24 428.31 C 64.45 423.57 65.18 418.78 65.11 414.02 C 65.01 382.34 65.06 350.69 65.05 319.00 C 65.07 317.33 65.07 315.66 65.06 314.00 C 65.13 306.28 64.61 298.46 66.29 290.87 C 69.86 272.04 81.87 255.11 98.25 245.21 Z" />
<path fill="#ffffff" opacity="1.00" d=" M 359.03 238.20 C 373.66 233.78 389.73 234.44 403.87 240.29 C 427.68 249.70 445.17 273.33 446.77 298.93 C 447.03 305.28 446.78 311.64 446.94 318.00 C 446.86 322.00 446.86 326.00 446.94 330.00 C 446.86 333.00 446.87 336.00 446.94 339.00 C 446.90 347.66 446.85 356.33 446.94 364.99 C 446.86 371.66 446.86 378.33 446.94 385.00 C 446.81 393.67 447.06 402.33 446.94 411.00 C 446.83 416.74 446.92 422.49 446.89 428.23 C 421.85 428.22 396.83 428.24 371.80 428.22 C 371.79 382.80 371.80 337.39 371.79 291.98 C 372.05 276.61 368.81 261.29 362.89 247.13 C 361.71 244.10 359.98 241.31 359.03 238.20 Z" />
<path fill="#ffffff" opacity="1.00" d=" M 30.83 262.60 C 40.39 258.89 51.16 258.47 60.94 261.63 C 53.40 274.39 48.99 289.13 49.17 304.00 C 49.17 334.16 49.16 364.32 49.17 394.47 C 32.78 394.55 16.39 394.50 0.00 394.50 L 0.00 300.66 C 1.30 297.18 1.90 293.49 3.25 290.03 C 8.03 277.55 18.32 267.30 30.83 262.60 Z" />
<path fill="#ffffff" opacity="1.00" d=" M 451.07 261.64 C 459.42 258.99 468.50 258.76 476.93 261.20 C 491.30 265.07 503.46 276.15 508.75 290.05 C 510.11 293.55 510.75 297.28 512.00 300.83 L 512.00 394.49 C 495.61 394.52 479.22 394.53 462.83 394.48 C 462.84 366.99 462.83 339.49 462.84 312.00 C 462.80 304.63 463.12 297.19 461.62 289.93 C 459.87 279.96 456.17 270.37 451.07 261.64 Z" />
</g>
</svg>
